<svg width="494" height="321" viewBox="0 0 494 321" fill="none" xmlns="http://www.w3.org/2000/svg">
<g clip-path="url(#clip0_47_106)">
<path d="M494 150.708C494.001 163.479 489.185 175.78 480.514 185.151C471.844 194.523 459.959 200.274 447.234 201.256C446.805 201.289 446.37 201.321 445.935 201.341V153.224C445.935 152.743 445.828 152.268 445.622 151.834C445.415 151.4 445.114 151.017 444.74 150.715C444.697 150.67 444.649 150.631 444.597 150.598C444.55 150.559 444.5 150.525 444.448 150.494C443.991 150.2 443.469 150.025 442.927 149.985C442.386 149.946 441.844 150.042 441.349 150.266L440.81 149.083C441.4 148.815 442.04 148.675 442.687 148.674L405.69 116.78C405.976 116.455 406.275 116.136 406.574 115.818C413.548 108.461 422.568 103.365 432.467 101.19C442.365 99.0155 452.688 99.8611 462.102 103.618C471.515 107.375 479.586 113.87 485.273 122.264C490.959 130.659 493.999 140.567 494 150.708Z" fill="#F2F2F2"/>
<path d="M12.8462 185.278C12.6622 184.337 12.6865 183.367 12.9175 182.437C13.1485 181.507 13.5805 180.639 14.1831 179.894C14.7856 179.149 15.5441 178.545 16.4051 178.125C17.2661 177.705 18.2086 177.479 19.1664 177.463L48.3705 142.674L55.6614 152.003L25.8983 184.379C25.8186 185.991 25.1508 187.517 24.0216 188.669C22.8923 189.821 21.3799 190.519 19.7711 190.63C18.1622 190.74 16.5687 190.257 15.2924 189.27C14.0161 188.284 13.1457 186.863 12.8462 185.278Z" fill="#FFB8B8"/>
<path d="M151.526 142.459C151.322 142.755 151.141 143.066 150.985 143.391L119.097 147.952L114.255 141.8L104.022 147.9L113.641 162.907L152.532 151.435C153.558 152.364 154.843 152.959 156.215 153.14C157.588 153.322 158.983 153.08 160.215 152.449C161.447 151.817 162.458 150.825 163.113 149.605C163.768 148.385 164.036 146.994 163.882 145.617C163.727 144.24 163.158 142.943 162.249 141.898C161.34 140.853 160.135 140.11 158.794 139.767C157.453 139.425 156.039 139.498 154.741 139.979C153.442 140.46 152.321 141.325 151.526 142.459Z" fill="#FFB8B8"/>
<path d="M97.0562 258.693L102.699 264.316L127.057 245.212L118.728 236.914L97.0562 258.693Z" fill="#FFB8B8"/>
<path d="M108.365 280.402L90.63 262.732L97.4526 255.875L108.335 266.718C109.235 267.615 109.95 268.68 110.438 269.853C110.926 271.026 111.179 272.284 111.182 273.554C111.185 274.825 110.937 276.084 110.454 277.259C109.97 278.434 109.261 279.502 108.365 280.402Z" fill="#2F2E41"/>
<path d="M67.0611 312.622H75.0243L78.8123 281.886H67.0598L67.0611 312.622Z" fill="#FFB8B8"/>
<path d="M90.3815 320.02L65.3548 320.021L65.3544 310.345L80.7117 310.344C81.9815 310.344 83.2389 310.595 84.412 311.081C85.5852 311.567 86.6512 312.28 87.5491 313.178C88.447 314.077 89.1593 315.143 89.6453 316.317C90.1313 317.491 90.3815 318.749 90.3815 320.02Z" fill="#2F2E41"/>
<path d="M65.33 288.883L56.2597 221.945C54.8402 211.829 55.2807 201.538 57.5595 191.581C59.4208 183.578 61.9353 178.035 65.0335 175.106C65.5224 174.647 66.1483 174.361 66.8152 174.292L96.7626 171.17C97.3394 171.111 97.9211 171.218 98.4398 171.477C98.9586 171.736 99.3928 172.138 99.692 172.635L100.676 174.277C100.796 174.476 100.892 174.688 100.964 174.91L107.295 194.551C107.39 194.848 107.542 195.123 107.744 195.361C107.946 195.598 108.193 195.793 108.47 195.934C118.439 201.027 150.821 218.219 148.968 225.637C147.227 232.607 130.925 243.908 125.97 247.205C125.465 247.542 124.871 247.72 124.264 247.716C123.657 247.711 123.066 247.524 122.566 247.179L114.341 241.548C113.94 241.273 113.61 240.906 113.379 240.477C113.148 240.048 113.023 239.57 113.015 239.084C113.006 238.597 113.114 238.115 113.33 237.678C113.546 237.242 113.863 236.863 114.254 236.575L119.926 232.392C120.274 232.136 120.544 231.79 120.71 231.392C120.875 230.993 120.929 230.557 120.865 230.131C120.801 229.704 120.622 229.303 120.347 228.97C120.072 228.637 119.712 228.386 119.305 228.243L88.8431 217.548C88.5011 217.427 88.1361 217.387 87.7761 217.431C87.4162 217.474 87.071 217.599 86.767 217.796C86.4629 217.994 86.2082 218.259 86.0224 218.57C85.8366 218.882 85.7247 219.231 85.6952 219.593L80.0786 288.287C80.0166 289.023 79.6902 289.712 79.1596 290.227C78.6291 290.741 77.9304 291.045 77.1928 291.084L68.5025 291.519C68.4496 291.522 68.3972 291.523 68.3448 291.523C67.6072 291.526 66.8939 291.259 66.3389 290.773C65.7838 290.287 65.4251 289.615 65.33 288.883Z" fill="#2F2E41"/>
<path d="M79.0645 115.75C87.8752 115.75 95.0176 108.602 95.0176 99.7857C95.0176 90.9691 87.8752 83.8218 79.0645 83.8218C70.2539 83.8218 63.1115 90.9691 63.1115 99.7857C63.1115 108.602 70.2539 115.75 79.0645 115.75Z" fill="#FFB8B8"/>
<path d="M64.1432 172.372L52.4003 129.496L52.6014 129.361C52.8536 129.191 78.1645 112.466 107.798 125.944L108.336 126.252L101.377 170.754C101.226 171.769 100.725 172.7 99.9604 173.385C99.1963 174.071 98.2171 174.468 97.1917 174.508L68.5587 175.61C68.501 175.612 68.4435 175.614 68.3862 175.614C67.421 175.616 66.482 175.299 65.7149 174.713C64.9477 174.127 64.3953 173.304 64.1432 172.372Z" fill="#CCCCCC"/>
<path d="M51.9535 157.409L42.1734 146.155C41.7023 145.614 41.4371 144.924 41.4245 144.207C41.4118 143.49 41.6526 142.791 42.1043 142.234L52.3282 129.595L60.1767 131.737L64.3377 146.311L56.7508 157.157C56.4862 157.537 56.1379 157.852 55.7326 158.077C55.3274 158.302 54.876 158.431 54.4133 158.454C54.3585 158.456 54.3041 158.457 54.2497 158.457C53.8141 158.458 53.3835 158.365 52.9872 158.184C52.5909 158.003 52.2383 157.739 51.9535 157.409Z" fill="#CCCCCC"/>
<path d="M106.036 155.064C105.573 155.041 105.122 154.913 104.717 154.688C104.312 154.463 103.963 154.148 103.699 153.767L96.1118 142.921L99.7611 127.581L106.987 125.608L108.336 126.252L118.345 138.845C118.797 139.402 119.038 140.1 119.025 140.817C119.012 141.535 118.747 142.224 118.276 142.765L108.496 154.02C108.211 154.349 107.859 154.614 107.462 154.795C107.066 154.976 106.635 155.069 106.2 155.068C106.146 155.068 106.091 155.067 106.036 155.064Z" fill="#CCCCCC"/>
<path d="M445.935 150.039C445.941 150.2 445.885 150.359 445.779 150.481C445.667 150.612 445.508 150.693 445.336 150.706C445.164 150.72 444.994 150.664 444.863 150.552L442.687 148.674L405.69 116.78L301.922 27.3117C301.33 26.8046 300.576 26.5265 299.797 26.5277C299.018 26.5289 298.265 26.8093 297.674 27.3182L157.935 148.804L156.675 149.896C156.626 149.939 156.572 149.974 156.512 150C156.408 150.046 156.294 150.064 156.181 150.052C156.019 150.034 155.869 149.958 155.759 149.837C155.702 149.773 155.659 149.699 155.632 149.618C155.604 149.537 155.592 149.452 155.598 149.367C155.603 149.282 155.625 149.198 155.663 149.122C155.701 149.045 155.753 148.977 155.817 148.921L155.993 148.765L296.823 26.3367C297.651 25.6255 298.705 25.2334 299.796 25.231C300.886 25.2286 301.942 25.6161 302.773 26.3237L406.574 115.818L445.708 149.564C445.776 149.623 445.831 149.696 445.871 149.778C445.91 149.859 445.932 149.948 445.935 150.039Z" fill="#3F3D56"/>
<path d="M367.037 169.232L365.329 164.526L359.444 148.277L346.765 113.29L332.593 74.1809L307.034 3.63985C306.532 2.26424 305.506 1.14371 304.18 0.523629C302.854 -0.0964472 301.337 -0.165528 299.96 0.331513L152.186 53.9474C150.811 54.4491 149.691 55.4759 149.071 56.8027C148.452 58.1295 148.383 59.6481 148.88 61.0256L185.118 161.03L185.734 162.739L223.771 179.989L234.462 184.838L236.196 185.624L281.462 206.157L283.215 205.52L312.905 194.75L357.69 178.501L363.724 176.31C365.1 175.809 366.221 174.783 366.842 173.456C367.463 172.129 367.533 170.611 367.037 169.232Z" fill="#E6E6E6"/>
<path d="M305.072 85.9326C304.335 83.9081 302.826 82.2587 300.875 81.3461C298.924 80.4335 296.692 80.3322 294.667 81.0643L236.196 102.286L207.961 112.529C206.958 112.892 206.036 113.449 205.248 114.169C204.46 114.889 203.822 115.756 203.369 116.723C202.917 117.69 202.659 118.736 202.611 119.803C202.563 120.869 202.725 121.934 203.089 122.938C203.452 123.942 204.01 124.864 204.73 125.651C205.45 126.439 206.318 127.077 207.284 127.529C208.251 127.981 209.297 128.238 210.363 128.285C211.428 128.332 212.493 128.168 213.495 127.804L236.196 119.568L300.207 96.3451C302.23 95.6075 303.879 94.0971 304.791 92.1452C305.702 90.1933 305.804 87.9591 305.072 85.9326Z" fill="white"/>
<path d="M315.367 114.349C314.63 112.325 313.121 110.675 311.17 109.763C309.219 108.85 306.987 108.749 304.962 109.481L295.056 113.075L236.196 134.433L218.257 140.939C216.233 141.675 214.585 143.184 213.673 145.136C212.762 147.087 212.662 149.321 213.395 151.346C214.129 153.371 215.636 155.022 217.585 155.936C219.534 156.85 221.766 156.952 223.79 156.22L236.196 151.716L310.502 124.755C310.671 124.697 310.833 124.625 310.996 124.554C312.882 123.725 314.384 122.21 315.195 120.315C316.007 118.42 316.068 116.288 315.367 114.349Z" fill="white"/>
<path d="M325.773 143.065C325.037 141.041 323.529 139.391 321.579 138.479C319.63 137.566 317.398 137.464 315.374 138.197L287.593 148.278L266.087 156.084L236.196 166.925L228.662 169.662C226.921 170.296 225.448 171.507 224.488 173.093C223.527 174.679 223.137 176.546 223.381 178.384C223.455 178.931 223.586 179.469 223.771 179.99L234.462 184.838L236.196 184.208H236.209L290.451 164.527L320.907 153.477C322.932 152.741 324.581 151.231 325.493 149.279C326.406 147.326 326.506 145.091 325.773 143.065Z" fill="white"/>
<path d="M264.892 57.997C264.155 55.9725 262.646 54.3232 260.695 53.4106C258.745 52.498 256.512 52.3966 254.487 53.1288L220.906 65.3092C218.883 66.0449 217.235 67.5544 216.323 69.5057C215.412 71.4571 215.312 73.6907 216.045 75.7159C216.779 77.741 218.285 79.3919 220.235 80.3058C222.184 81.2198 224.416 81.3219 226.44 80.5899L237.067 76.7356L244.101 74.1812L260.028 68.403C262.05 67.6668 263.699 66.1577 264.611 64.2068C265.523 62.2559 265.624 60.0226 264.892 57.997Z" fill="white"/>
<path d="M398.903 74.1812H241.717C240.79 74.1821 239.878 74.4165 239.065 74.863C238.253 75.3094 237.565 75.9534 237.067 76.7355C236.497 77.6211 236.194 78.6525 236.196 79.7059V185.625L281.462 206.157L287.84 209.05L297.914 213.619C298.504 213.886 299.144 214.023 299.791 214.023C300.439 214.023 301.079 213.886 301.669 213.619L311.743 209.05L343.271 194.75L372.656 181.419L404.424 167.016V79.7059C404.423 78.2409 403.841 76.8362 402.806 75.8003C401.77 74.7645 400.367 74.1821 398.903 74.1812Z" fill="#EF7B20"/>
<path d="M366.426 148.277H274.193C272.096 148.279 270.081 149.092 268.57 150.547C267.059 152.002 266.169 153.986 266.087 156.083C266.077 156.189 266.072 156.296 266.074 156.402C266.077 158.556 266.934 160.621 268.456 162.144C269.978 163.667 272.041 164.524 274.193 164.527H366.426C368.58 164.527 370.645 163.671 372.167 162.147C373.69 160.623 374.545 158.557 374.545 156.402C374.545 154.247 373.69 152.181 372.167 150.657C370.645 149.133 368.58 148.277 366.426 148.277Z" fill="white"/>
<path d="M371.681 180.438C370.217 179.185 368.353 178.497 366.426 178.501H274.193C272.04 178.501 269.975 179.357 268.452 180.881C266.93 182.404 266.074 184.471 266.074 186.626C266.074 188.78 266.93 190.847 268.452 192.371C269.975 193.894 272.04 194.75 274.193 194.75H343.271L372.655 181.419C372.359 181.065 372.033 180.737 371.681 180.438Z" fill="white"/>
<path d="M287.84 209.049L297.914 213.619C298.504 213.885 299.144 214.023 299.791 214.023C300.439 214.023 301.079 213.885 301.669 213.619L311.743 209.049H287.84Z" fill="white"/>
<path d="M345.798 113.64C345.226 112.076 344.188 110.726 342.824 109.771C341.46 108.817 339.836 108.305 338.172 108.304H302.448C300.888 108.306 299.362 108.756 298.051 109.602C296.741 110.448 295.701 111.654 295.056 113.075C294.575 114.127 294.327 115.271 294.329 116.429C294.332 118.583 295.188 120.647 296.71 122.17C298.232 123.693 300.296 124.55 302.448 124.553H338.172C339.478 124.554 340.765 124.238 341.923 123.634C343.082 123.031 344.077 122.156 344.826 121.085C345.574 120.014 346.053 118.778 346.223 117.482C346.392 116.186 346.246 114.868 345.798 113.64Z" fill="white"/>
<path d="M340.12 194.75L308.592 209.049L301.13 212.436C300.709 212.625 300.253 212.723 299.791 212.723C299.33 212.723 298.874 212.625 298.453 212.436L290.99 209.049H287.84L297.914 213.619C298.504 213.885 299.144 214.023 299.791 214.023C300.439 214.023 301.079 213.885 301.669 213.619L311.743 209.049L343.271 194.75H340.12ZM340.12 194.75L308.592 209.049L301.13 212.436C300.709 212.625 300.253 212.723 299.791 212.723C299.33 212.723 298.874 212.625 298.453 212.436L290.99 209.049H287.84L297.914 213.619C298.504 213.885 299.144 214.023 299.791 214.023C300.439 214.023 301.079 213.885 301.669 213.619L311.743 209.049L343.271 194.75H340.12ZM340.12 194.75L308.592 209.049L301.13 212.436C300.709 212.625 300.253 212.723 299.791 212.723C299.33 212.723 298.874 212.625 298.453 212.436L290.99 209.049H287.84L297.914 213.619C298.504 213.885 299.144 214.023 299.791 214.023C300.439 214.023 301.079 213.885 301.669 213.619L311.743 209.049L343.271 194.75H340.12ZM445.935 150.039C445.695 149.8 445.432 149.587 445.149 149.402C444.511 148.988 443.779 148.742 443.02 148.686C442.262 148.63 441.502 148.767 440.81 149.083L371.681 180.438L340.12 194.75L308.592 209.049L301.13 212.436C300.709 212.625 300.253 212.723 299.791 212.723C299.33 212.723 298.874 212.625 298.453 212.436L290.99 209.049L283.215 205.52L236.209 184.208L236.196 184.201L223.381 178.384L185.118 161.03L158.773 149.083C158.505 148.959 158.224 148.866 157.935 148.804C157.299 148.645 156.635 148.631 155.993 148.765C154.965 148.975 154.042 149.534 153.378 150.346C152.715 151.158 152.351 152.174 152.349 153.224V316.45C152.35 317.656 152.83 318.813 153.682 319.666C154.534 320.519 155.69 320.999 156.896 321H442.687C443.893 320.999 445.048 320.519 445.901 319.666C446.753 318.813 447.233 317.656 447.234 316.45V153.224C447.236 152.032 446.77 150.888 445.935 150.039ZM445.935 316.45C445.935 317.312 445.592 318.138 444.983 318.748C444.374 319.357 443.549 319.7 442.687 319.7H156.896C156.034 319.7 155.208 319.357 154.599 318.748C153.99 318.138 153.648 317.312 153.648 316.45V153.224C153.648 152.681 153.784 152.146 154.044 151.669C154.304 151.192 154.679 150.788 155.135 150.494C155.456 150.288 155.81 150.139 156.181 150.052C156.29 150.028 156.401 150.011 156.512 150C156.639 149.981 156.767 149.973 156.895 149.974C157.357 149.974 157.814 150.074 158.234 150.266L185.734 162.739L223.771 179.989L234.462 184.838L236.196 185.625L281.462 206.157L287.84 209.049L297.914 213.619C298.504 213.885 299.144 214.023 299.791 214.023C300.439 214.023 301.079 213.885 301.669 213.619L311.743 209.049L343.271 194.75L372.655 181.419L441.349 150.266C441.844 150.042 442.386 149.946 442.927 149.985C443.469 150.025 443.991 150.2 444.447 150.494C444.5 150.525 444.55 150.559 444.597 150.598C444.649 150.631 444.697 150.67 444.74 150.715C445.113 151.017 445.415 151.4 445.621 151.834C445.828 152.268 445.935 152.743 445.935 153.224L445.935 316.45ZM340.12 194.75L308.592 209.049L301.13 212.436C300.709 212.625 300.253 212.723 299.791 212.723C299.33 212.723 298.874 212.625 298.453 212.436L290.99 209.049H287.84L297.914 213.619C298.504 213.885 299.144 214.023 299.791 214.023C300.439 214.023 301.079 213.885 301.669 213.619L311.743 209.049L343.271 194.75H340.12ZM340.12 194.75L308.592 209.049L301.13 212.436C300.709 212.625 300.253 212.723 299.791 212.723C299.33 212.723 298.874 212.625 298.453 212.436L290.99 209.049H287.84L297.914 213.619C298.504 213.885 299.144 214.023 299.791 214.023C300.439 214.023 301.079 213.885 301.669 213.619L311.743 209.049L343.271 194.75H340.12ZM234.462 184.838L236.196 185.625V184.208L234.462 184.838ZM340.12 194.75L308.592 209.049L301.13 212.436C300.709 212.625 300.253 212.723 299.791 212.723C299.33 212.723 298.874 212.625 298.453 212.436L290.99 209.049H287.84L297.914 213.619C298.504 213.885 299.144 214.023 299.791 214.023C300.439 214.023 301.079 213.885 301.669 213.619L311.743 209.049L343.271 194.75H340.12Z" fill="#3F3D56"/>
<path d="M114.009 321H40.6123C40.44 321 40.2748 320.932 40.153 320.81C40.0312 320.688 39.9628 320.523 39.9628 320.35C39.9628 320.178 40.0312 320.012 40.153 319.891C40.2748 319.769 40.44 319.7 40.6123 319.7H114.009C114.181 319.7 114.346 319.769 114.468 319.891C114.59 320.012 114.658 320.178 114.658 320.35C114.658 320.523 114.59 320.688 114.468 320.81C114.346 320.932 114.181 321 114.009 321Z" fill="#3F3D56"/>
<path d="M72.9988 111.46C71.8005 110.852 70.8042 109.909 70.1303 108.745C69.4565 107.582 69.1341 106.248 69.2021 104.905C69.2701 103.562 69.7257 102.268 70.5136 101.179C71.3015 100.089 72.3881 99.2521 73.6417 98.768C78.4557 96.909 83.8524 100.703 88.8986 99.6242C93.9281 98.5492 96.8376 92.5322 95.6371 87.5279C94.4366 82.5236 90.0671 78.7543 85.249 76.9541C82.1023 75.7814 78.7323 75.3318 75.3885 75.6385C72.0447 75.9452 68.8125 77.0004 65.9313 78.7261C63.0798 80.5022 60.705 82.9485 59.0133 85.8521C57.3216 88.7558 56.3642 92.029 56.2244 95.3872C56.1589 98.7483 56.9795 102.067 58.6037 105.01C60.2279 107.953 62.5982 110.416 65.476 112.15C66.7585 112.89 68.2514 113.484 69.6938 113.151C70.878 112.766 71.9936 112.195 72.9988 111.46Z" fill="#2F2E41"/>
<path d="M67.829 78.3368C63.5841 72.7026 57.8538 68.074 51.1858 65.7792C44.5179 63.4844 36.8981 63.6686 30.6357 66.9116C24.3732 70.1546 19.7029 76.5953 19.2155 83.6345C18.4041 95.35 28.4079 105.309 29.4345 117.007C29.76 120.715 29.1585 124.446 27.6844 127.864C26.2102 131.281 23.9097 134.278 20.99 136.584C18.0703 138.891 14.6231 140.434 10.9589 141.076C7.29478 141.717 3.52873 141.436 -3.8147e-06 140.259C2.51337 142.329 5.42742 143.857 8.55909 144.746C11.6908 145.635 14.9724 145.867 18.1979 145.427C21.418 144.943 24.4903 143.748 27.1918 141.929C29.8934 140.11 32.1565 137.712 33.8172 134.909C36.0686 130.995 36.9931 126.448 37.3522 121.946C37.9162 114.827 37.1524 107.665 35.0998 100.826C33.9777 97.0946 32.456 93.2545 33.1676 89.4233C33.5732 87.4305 34.555 85.6009 35.991 84.1618C37.427 82.7227 39.2539 81.7376 41.2447 81.3288C44.462 80.7256 47.7515 81.7082 50.8236 82.839C53.8956 83.9698 56.9929 85.2784 60.2654 85.3533C63.5378 85.4282 67.1022 83.9292 68.3668 80.908L67.829 78.3368Z" fill="#2F2E41"/>
</g>
<defs>
<clipPath id="clip0_47_106">
<rect width="494" height="321" fill="white"/>
</clipPath>
</defs>
</svg>
