<svg width="100" height="100" viewBox="0 0 100 100" fill="none" xmlns="http://www.w3.org/2000/svg">
<rect width="100" height="100" rx="10" fill="#EAFFE7"/>
<g clip-path="url(#clip0_56_163)">
<path d="M67.3404 50.518C67.1795 50.1887 67.1795 49.8111 67.3404 49.4819L68.8323 46.4299C69.6629 44.7307 69.0048 42.7053 67.334 41.8188L64.3332 40.2266C64.0095 40.0549 63.7875 39.7493 63.7242 39.3884L63.1373 36.0424C62.8105 34.1795 61.0872 32.9276 59.2148 33.1925L55.8513 33.6683C55.4883 33.7196 55.1293 33.6028 54.8659 33.3481L52.4245 30.9862C51.065 29.6711 48.9354 29.671 47.576 30.9862L45.1344 33.3483C44.871 33.6031 44.512 33.7196 44.1491 33.6685L40.7856 33.1928C38.9125 32.9277 37.1899 34.1797 36.8631 36.0427L36.2762 39.3885C36.2129 39.7494 35.9909 40.055 35.6672 40.2268L32.6665 41.819C30.9957 42.7054 30.3376 44.7309 31.1682 46.4302L32.66 49.482C32.8209 49.8113 32.8209 50.189 32.66 50.5182L31.1681 53.5701C30.3375 55.2693 30.9956 57.2947 32.6664 58.1812L35.6672 59.7734C35.9909 59.9451 36.2129 60.2507 36.2762 60.6116L36.8631 63.9576C37.1606 65.6535 38.6148 66.8429 40.2861 66.8427C40.4507 66.8427 40.6178 66.8312 40.7856 66.8074L44.1491 66.3316C44.5119 66.2801 44.8711 66.3971 45.1345 66.6519L47.576 69.0137C48.2558 69.6714 49.1279 70.0001 50.0002 70C50.8723 70 51.7449 69.6712 52.4244 69.0137L54.8659 66.6519C55.1294 66.3971 55.4884 66.2807 55.8513 66.3316L59.2148 66.8074C61.0881 67.0724 62.8105 65.8205 63.1373 63.9575L63.7243 60.6117C63.7876 60.2507 64.0096 59.9452 64.3332 59.7734L67.334 58.1812C69.0048 57.2948 69.6629 55.2693 68.8323 53.57L67.3404 50.518ZM66.2527 56.1432L63.2519 57.7353C62.2952 58.2431 61.639 59.146 61.4519 60.2129L60.8651 63.5588C60.7545 64.1891 60.1718 64.6125 59.538 64.523L56.1745 64.0473C55.1018 63.8953 54.0404 64.2405 53.2619 64.9936L50.8203 67.3554C50.3605 67.8002 49.64 67.8002 49.18 67.3554L46.7385 64.9935C46.0805 64.357 45.2204 64.0121 44.3224 64.0121C44.1579 64.0121 43.992 64.0237 43.8259 64.0472L40.4624 64.523C39.8292 64.6125 39.246 64.1891 39.1353 63.5587L38.5484 60.2128C38.3612 59.1459 37.7051 58.2428 36.7483 57.7353L33.7476 56.1431C33.1822 55.8432 32.9596 55.1579 33.2406 54.583L34.7325 51.5311C35.2081 50.558 35.2081 49.4419 34.7325 48.4688L33.2406 45.4168C32.9596 44.8419 33.1822 44.1567 33.7476 43.8568L36.7483 42.2646C37.705 41.7568 38.3612 40.8539 38.5483 39.787L39.1352 36.4411C39.2458 35.8108 39.8285 35.3874 40.4623 35.4769L43.8258 35.9527C44.898 36.1045 45.9598 35.7594 46.7383 35.0063L49.1799 32.6445C49.6397 32.1996 50.3603 32.1996 50.8203 32.6445L53.2617 35.0063C54.0403 35.7595 55.1019 36.1045 56.1743 35.9527L59.5378 35.4769C60.1712 35.3873 60.7544 35.8108 60.8649 36.4411L61.4518 39.7871C61.639 40.854 62.295 41.757 63.2518 42.2646L66.2526 43.8568C66.8179 44.1567 67.0406 44.8419 66.7596 45.4168L65.2677 48.4687C64.7921 49.4417 64.7921 50.558 65.2677 51.531L66.7596 54.5829C67.0406 55.1579 66.818 55.8432 66.2527 56.1432Z" fill="#04B200"/>
<path d="M58.4284 41.5715C57.978 41.121 57.2476 41.121 56.7971 41.5715L41.5715 56.7972C41.121 57.2477 41.121 57.978 41.5715 58.4285C41.7967 58.6537 42.092 58.7664 42.3871 58.7664C42.6823 58.7664 42.9776 58.6538 43.2027 58.4285L58.4284 43.2029C58.879 42.7523 58.879 42.022 58.4284 41.5715Z" fill="#04B200"/>
<path d="M45.3862 39.6184C43.054 39.6184 41.1566 41.5158 41.1566 43.848C41.1566 46.1802 43.054 48.0776 45.3862 48.0776C47.7184 48.0776 49.6158 46.1802 49.6158 43.848C49.6158 41.5158 47.7184 39.6184 45.3862 39.6184ZM45.3862 45.7705C44.3261 45.7705 43.4637 44.9081 43.4637 43.8479C43.4637 42.7878 44.3261 41.9254 45.3862 41.9254C46.4463 41.9254 47.3088 42.7878 47.3088 43.8479C47.3087 44.9081 46.4463 45.7705 45.3862 45.7705Z" fill="#04B200"/>
<path d="M54.6141 51.9226C52.2819 51.9226 50.3845 53.8201 50.3845 56.1522C50.3845 58.4844 52.2819 60.3818 54.6141 60.3818C56.9463 60.3818 58.8437 58.4844 58.8437 56.1522C58.8437 53.8201 56.9463 51.9226 54.6141 51.9226ZM54.6141 58.0747C53.554 58.0747 52.6915 57.2123 52.6915 56.1522C52.6915 55.0922 53.554 54.2297 54.6141 54.2297C55.6742 54.2297 56.5366 55.0922 56.5366 56.1522C56.5366 57.2123 55.6742 58.0747 54.6141 58.0747Z" fill="#04B200"/>
</g>
<defs>
<clipPath id="clip0_56_163">
<rect width="40" height="40" fill="white" transform="translate(30 30)"/>
</clipPath>
</defs>
</svg>
