<svg width="100" height="100" viewBox="0 0 100 100" fill="none" xmlns="http://www.w3.org/2000/svg">
<rect width="100" height="100" rx="10" fill="#FFE9D6"/>
<g clip-path="url(#clip0_56_162)">
<path d="M68.4422 67.8845H64.8356V45.8356C64.8356 45.5276 64.5859 45.2779 64.2778 45.2779H58.3288C58.0207 45.2779 57.771 45.5276 57.771 45.8356V67.8845H53.5323V52.3796C53.5323 52.0716 53.2826 51.8219 52.9745 51.8219H47.0255C46.7174 51.8219 46.4677 52.0716 46.4677 52.3796V67.8845H42.229V55.3542C42.229 55.0461 41.9793 54.7964 41.6712 54.7964H35.7222C35.4141 54.7964 35.1644 55.0461 35.1644 55.3542V67.8844H31.5578C31.2497 67.8844 31 68.1342 31 68.4422C31 68.7502 31.2497 68.9999 31.5578 68.9999H68.4422C68.7503 68.9999 69 68.7502 69 68.4422C68.9999 68.1342 68.7503 67.8845 68.4422 67.8845ZM41.1135 67.8845H36.2798V55.9119H41.1135V67.8845ZM52.4169 67.8845H47.5832V52.9374H52.4169V67.8845ZM63.7201 67.8845H58.8865V46.3934H63.7201V67.8845Z" fill="#FF7600"/>
<path d="M67.2194 31.4375C66.8434 31.1056 66.3431 30.951 65.8459 31.0135L61.0866 31.6085C60.1418 31.7265 59.4511 32.6134 59.5693 33.5592C59.6888 34.5149 60.5631 35.196 61.5201 35.0765L61.9084 35.028C56.067 41.8009 49.1226 45.3012 44.2154 47.0604C38.0967 49.2539 33.3343 49.4415 33.288 49.4431C32.3259 49.4731 31.5667 50.2804 31.5958 51.2427C31.6246 52.193 32.3915 52.9373 33.3419 52.9373C33.3596 52.9373 33.3773 52.9371 33.3955 52.9365C33.6072 52.9301 38.6557 52.7518 45.3068 50.3819C49.0458 49.0495 52.564 47.2808 55.7637 45.125C56.0192 44.9529 56.0867 44.6062 55.9145 44.3508C55.7425 44.0952 55.3959 44.0278 55.1403 44.1999C52.0181 46.3037 48.5836 48.0301 44.9324 49.3312C38.4447 51.6428 33.5661 51.8153 33.3621 51.8215L33.3419 51.8218C32.9984 51.8218 32.7211 51.5526 32.7108 51.2089C32.7002 50.8608 32.9748 50.5688 33.3231 50.5579C33.3717 50.5564 38.27 50.3766 44.5918 48.1103C49.888 46.2117 57.498 42.3351 63.6754 34.6487C63.983 34.266 63.6578 33.685 63.1716 33.7459L61.3821 33.9696C61.0718 34.008 60.7705 33.8047 60.6917 33.5017C60.597 33.1371 60.8518 32.7619 61.2251 32.7151L65.9845 32.1202C66.3561 32.0732 66.6949 32.3736 66.6949 32.7474V37.5067C66.6949 37.8552 66.4113 38.1388 66.0627 38.1388C65.7141 38.1388 65.4306 37.8553 65.4306 37.5067V36.0639C65.4306 35.836 65.2832 35.6228 65.0701 35.5423C64.8498 35.4591 64.5896 35.5289 64.4408 35.7112C62.3577 38.2637 59.9858 40.5733 57.3909 42.5761C57.1471 42.7643 57.1019 43.1145 57.2901 43.3584C57.4783 43.6023 57.8287 43.6473 58.0724 43.4592C60.3327 41.7147 62.4279 39.7434 64.317 37.5854C64.3582 38.5127 65.1255 39.2544 66.0628 39.2544C67.0264 39.2544 67.8104 38.4704 67.8104 37.5068V32.7476C67.8103 32.2466 67.5949 31.769 67.2194 31.4375Z" fill="#FF7600"/>
</g>
<defs>
<clipPath id="clip0_56_162">
<rect width="38" height="38" fill="white" transform="translate(31 31)"/>
</clipPath>
</defs>
</svg>
