<svg width="535" height="396" viewBox="0 0 535 396" fill="none" xmlns="http://www.w3.org/2000/svg">
<path d="M285.192 273.051C282.643 270.921 280.48 268.471 278.78 265.703C277.892 264.247 277.158 262.756 276.579 261.195C276.308 260.485 276.038 259.739 275.845 258.994C275.652 258.319 275.613 257.645 275.768 256.97C276.308 255.834 277.081 255.586 278.124 256.225C278.549 256.651 279.398 256.083 279.051 255.586C276.231 251.93 274.145 247.883 272.948 243.517C272.678 242.523 272.446 241.529 272.253 240.5C272.098 239.541 272.137 238.405 271.867 237.447C271.287 235.53 269.742 233.578 268.815 231.767C264.412 223.355 260.704 214.161 262.249 204.683C261.901 204.718 261.554 204.754 261.206 204.825C268.815 213.983 274.763 224.171 278.819 235.069C279.051 235.708 280.132 235.459 279.939 234.785C279.514 233.223 279.321 231.732 279.398 230.134C279.167 230.312 278.896 230.489 278.665 230.631C279.862 230.809 280.557 231.448 280.75 232.548C280.866 233.152 281.87 232.974 281.87 232.406C281.909 230.525 281.986 228.608 282.025 226.727C281.677 226.833 281.291 226.904 280.943 227.011C287.278 235.956 292.261 245.611 295.775 255.763C295.969 256.296 296.702 256.26 296.896 255.763C297.205 254.947 297.514 254.095 297.861 253.279C297.591 253.385 297.282 253.492 297.011 253.598C300.719 256.047 302.728 259.988 302.496 264.141C302.458 264.815 303.616 264.815 303.655 264.141C303.887 259.562 301.608 255.337 297.591 252.675C297.282 252.462 296.857 252.711 296.741 252.995C296.432 253.811 296.123 254.663 295.775 255.479C296.162 255.479 296.509 255.479 296.896 255.479C293.381 245.221 288.359 235.459 281.948 226.478C281.639 226.052 280.866 226.194 280.866 226.762C280.828 228.644 280.75 230.56 280.712 232.442C281.098 232.406 281.484 232.335 281.832 232.3C281.561 230.88 280.48 229.85 278.935 229.638C278.549 229.567 278.201 229.779 278.201 230.134C278.124 231.838 278.317 233.436 278.78 235.069C279.167 234.962 279.514 234.891 279.901 234.785C275.806 223.816 269.819 213.522 262.172 204.292C261.901 203.973 261.206 203.902 261.129 204.434C259.622 213.664 262.867 222.574 267.038 230.844C268.12 233.01 269.549 235.104 270.476 237.269C271.326 239.222 271.249 241.707 271.828 243.765C273.064 248.203 275.188 252.356 278.047 256.083C278.356 255.87 278.665 255.657 278.974 255.444C277.969 254.415 276.27 254.592 275.304 255.586C273.759 257.148 274.841 259.739 275.459 261.443C277.274 266.164 280.364 270.388 284.381 273.761C284.922 274.257 285.733 273.512 285.192 273.051Z" fill="#EF7B20"/>
<path d="M174.3 259.491C172.407 258.177 170.708 256.651 169.317 254.876C168.776 254.202 168.274 253.456 167.811 252.746C167.579 252.32 167.309 251.93 167.116 251.504C166.922 251.149 165.262 247.031 167.54 247.954C168.043 248.167 168.622 247.741 168.352 247.209C167.849 246.357 163.562 240.251 165.802 239.754C166.189 239.683 166.304 239.257 166.15 238.973C162.596 233.045 160.086 226.691 158.579 220.053C158.464 220.266 158.309 220.479 158.193 220.692C161.245 220.195 162.751 224.597 163.755 226.549C164.991 228.963 166.227 231.377 167.502 233.755C170.051 238.689 172.562 243.588 175.111 248.522C175.42 249.09 176.308 248.664 176.154 248.096C175.883 246.96 175.922 245.966 176.27 244.83C175.961 244.901 175.613 244.972 175.304 245.079C177.274 246.534 178.858 248.203 180.171 250.226C180.441 250.652 181.059 250.51 181.214 250.084C182.45 249.8 183.261 250.048 183.686 250.865C183.879 251.184 184.072 251.539 184.265 251.859C184.729 252.64 185.153 253.421 185.617 254.166C186.505 255.728 187.394 257.254 188.282 258.816C188.63 259.42 189.634 258.887 189.286 258.284C188.398 256.722 187.51 255.196 186.621 253.634C185.849 252.285 185.153 250.616 184.033 249.445C182.875 248.238 180.827 248.096 180.094 249.764C180.441 249.729 180.789 249.693 181.136 249.622C179.785 247.564 178.124 245.789 176.077 244.262C175.729 244.014 175.227 244.085 175.111 244.511C174.725 245.824 174.686 247.031 174.995 248.345C175.343 248.203 175.69 248.061 176.038 247.919C172.987 241.955 169.897 235.956 166.807 229.992C165.416 227.33 164.257 224.313 162.442 221.864C161.322 220.373 159.893 219.237 157.807 219.592C157.498 219.627 157.343 219.982 157.421 220.231C158.927 226.94 161.515 233.4 165.107 239.399C165.223 239.151 165.339 238.867 165.455 238.618C161.322 239.577 166.459 246.179 167.309 247.635C167.579 247.386 167.849 247.138 168.12 246.889C167.116 246.499 166.073 246.712 165.455 247.599C164.566 248.877 165.377 250.474 165.995 251.646C167.734 255.089 170.437 258 173.72 260.307C174.3 260.84 174.879 259.917 174.3 259.491Z" fill="#E8E8E8"/>
<path d="M17.2506 108.131C21.847 103.303 29.0699 106.462 34.207 108.557C38.9192 110.473 44.3267 112 49.039 109.231C53.5195 106.569 56.0301 101.954 61.5535 100.818C68.197 99.4338 74.5315 102.522 79.939 105.681C80.557 106.036 81.1364 105.113 80.5183 104.758C75.2654 101.706 69.3557 98.8658 62.944 99.5048C60.3175 99.7888 57.8841 100.641 55.7984 102.132C53.7126 103.622 52.0131 105.575 50.0046 107.172C43.9019 112 37.297 108.486 31.0011 106.107C26.2889 104.297 20.1861 103.409 16.4009 107.385C15.9374 107.918 16.7485 108.663 17.2506 108.131Z" fill="#FF6464"/>
<path d="M0.989454 173.942C3.42283 171.564 7.05358 174.191 8.90758 175.859C10.5298 177.315 12.3838 179.054 14.7786 179.267C16.903 179.48 18.6025 178.415 20.0702 177.102C22.156 175.256 24.0486 173.623 26.9455 172.877C29.8423 172.167 33.0482 172.345 35.7906 173.587C37.9536 174.581 39.9235 176.498 42.5113 176.285C44.7902 176.108 46.1421 174.262 47.5712 172.877C49.8887 170.606 53.2877 169.434 56.6867 169.825C62.3646 170.464 67.3472 174.972 73.2955 173.339C73.9907 173.161 73.7203 172.132 72.9865 172.309C67.3086 173.836 62.326 169.363 56.8412 168.76C54.292 168.476 51.6655 168.973 49.4638 170.144C48.3823 170.712 47.4167 171.458 46.5669 172.309C45.5627 173.303 44.5971 174.652 43.168 175.114C40.3483 176.001 37.2583 172.842 34.7091 172.061C32.3916 171.351 29.881 171.245 27.4862 171.706C25.1687 172.132 23.0443 173.126 21.2676 174.546C18.8342 176.569 16.594 179.48 12.9632 177.563C9.60283 175.824 4.50433 168.902 0.17833 173.197C-0.36242 173.694 0.448704 174.475 0.989454 173.942Z" fill="#FF6464"/>
<path d="M44.2495 164.571C46.3738 163.009 48.8458 161.306 51.6268 161.093C54.1761 160.915 56.2232 162.193 58.1931 163.506C60.8968 165.281 64.6821 167.447 67.9266 165.388C68.9308 164.749 69.6647 163.613 70.8621 163.293C72.5616 162.832 74.2224 163.932 75.4971 164.784C76.9262 165.778 78.3167 166.879 80.1321 167.163C82.4109 167.518 84.8829 166.666 87.1232 166.204C89.8656 165.636 92.6079 165.068 95.3503 164.5C96.0842 164.358 95.7752 163.329 95.0413 163.471C92.1831 164.074 89.2862 164.678 86.4279 165.281C83.4538 165.885 80.6728 166.808 77.9305 165.104C76.0765 163.968 74.4156 162.335 72.0594 162.157C70.2441 162.015 69.2398 162.903 68.0038 163.932C63.4847 167.66 58.927 161.732 54.7941 160.418C50.584 159.034 46.6056 161.448 43.4383 163.79C42.859 164.252 43.6701 164.997 44.2495 164.571Z" fill="#E8E8E8"/>
<path d="M471.558 136.883C472.601 133.795 476.695 134.753 478.935 135.889C481.06 136.954 483.068 138.445 485.579 138.694C487.665 138.907 489.364 138.055 491.141 137.132C493.883 135.676 496.935 135.073 500.025 135.96C502.033 136.528 503.733 138.055 505.896 138.197C507.981 138.374 509.526 137.096 511.187 136.138C515.552 133.617 520.264 137.132 524.938 136.067C525.672 135.889 525.363 134.86 524.629 135.037C519.801 136.138 515.281 132.517 510.608 135.215C509.565 135.818 508.561 136.635 507.363 136.99C505.548 137.522 504.042 136.493 502.497 135.747C500.372 134.753 498.093 134.256 495.699 134.505C493.188 134.753 491.373 135.889 489.171 136.919C485.502 138.623 482.682 136.528 479.553 134.966C476.579 133.475 471.751 132.837 470.476 136.599C470.245 137.238 471.365 137.522 471.558 136.883Z" fill="#FF6464"/>
<path d="M491.063 132.446C492.802 130.955 494.694 129.358 496.973 128.648C499.097 127.974 501.222 128.364 503.269 129.039C506.513 130.139 509.719 132.056 513.35 131.559C516.672 131.097 520.071 127.761 523.508 128.648C525.285 129.11 526.367 130.423 528.337 130.6C530.384 130.778 532.392 130.174 534.285 129.571C534.98 129.358 534.671 128.329 533.976 128.542C531.542 129.323 528.8 130.21 526.367 128.932C524.899 128.151 523.779 127.335 521.963 127.512C517.985 127.867 515.088 131.133 510.839 130.529C507.17 129.997 504.08 127.654 500.333 127.299C496.239 126.909 493.072 129.358 490.252 131.736C489.712 132.162 490.523 132.908 491.063 132.446Z" fill="#FFCD00"/>
<path d="M116.092 24.1086C116.942 21.2689 120.959 21.7303 123.238 22.6177C125.516 23.5407 127.679 24.8896 130.267 24.9251C135.134 25.0316 138.919 20.3814 143.786 21.1624C146.065 21.5173 147.919 23.0792 150.236 23.3277C152.824 23.6117 154.331 21.8723 156.301 20.6654C158.618 19.2455 161.515 18.7131 164.296 18.997C165.725 19.139 167.116 19.5295 168.352 20.1329C169.51 20.6654 170.476 21.5173 171.673 22.0143C174.029 22.9727 175.574 21.6593 177.467 20.5234C181.175 18.3226 185.192 21.1624 187.973 23.3987C188.514 23.8601 189.364 23.1147 188.784 22.6532C186.698 20.9494 184.304 19.21 181.484 18.7486C178.703 18.2871 177.235 19.636 174.995 20.8074C172.987 21.8723 171.557 20.7009 169.897 19.7425C168.815 19.1035 167.656 18.6421 166.42 18.3226C164.064 17.7191 161.515 17.7191 159.159 18.3226C157.923 18.6421 156.764 19.1035 155.683 19.7425C154.369 20.5234 153.211 21.8368 151.627 22.1918C148.807 22.8307 146.181 20.2749 143.4 20.0264C137.799 19.565 133.705 25.2445 127.988 23.4342C125.169 22.5468 122.697 20.6299 119.53 20.8074C117.444 20.9139 115.513 21.8368 114.972 23.7892C114.779 24.4991 115.86 24.7831 116.092 24.1086Z" fill="#FF6464"/>
<path d="M170.012 13.8499C172.021 12.2526 174.686 11.6136 177.274 12.1461C179.514 12.6075 180.827 14.0984 182.759 15.0568C185.81 16.5477 188.398 14.7019 190.87 13.14C192.685 12.0041 194.501 11.1522 196.625 12.0751C198.363 12.8205 199.754 13.7789 201.762 13.708C206.204 13.566 210.916 8.48986 215.281 11.2941C215.899 11.6846 216.478 10.7617 215.86 10.3712C211.727 7.70892 207.401 11.3296 203.462 12.3591C201.724 12.8205 200.333 12.643 198.711 11.8976C197.745 11.4361 196.895 10.9037 195.814 10.6907C194.269 10.3712 192.801 10.8327 191.449 11.5426C189.827 12.3946 188.398 13.708 186.621 14.3114C183.802 15.2698 182.179 13.069 180.016 11.9686C176.54 10.1582 172.175 10.7617 169.24 13.1045C168.622 13.5305 169.433 14.2759 170.012 13.8499Z" fill="#E8E8E8"/>
<path d="M233.782 137.025C237.131 137.025 239.846 134.53 239.846 131.452C239.846 128.374 237.131 125.879 233.782 125.879C230.433 125.879 227.718 128.374 227.718 131.452C227.718 134.53 230.433 137.025 233.782 137.025Z" stroke="#FFCD00" stroke-miterlimit="10"/>
<path d="M41.7775 230.88C44.508 230.88 46.7215 228.846 46.7215 226.336C46.7215 223.827 44.508 221.793 41.7775 221.793C39.047 221.793 36.8335 223.827 36.8335 226.336C36.8335 228.846 39.047 230.88 41.7775 230.88Z" stroke="#E8E8E8" stroke-miterlimit="10"/>
<path d="M328.8 8.5964C331.082 8.5964 332.933 6.89589 332.933 4.7982C332.933 2.70051 331.082 1 328.8 1C326.517 1 324.667 2.70051 324.667 4.7982C324.667 6.89589 326.517 8.5964 328.8 8.5964Z" stroke="#E8E8E8" stroke-miterlimit="10"/>
<path d="M130.692 60.5289C132.015 60.5289 133.087 59.5435 133.087 58.328C133.087 57.1125 132.015 56.1272 130.692 56.1272C129.37 56.1272 128.297 57.1125 128.297 58.328C128.297 59.5435 129.37 60.5289 130.692 60.5289Z" fill="#04162F"/>
<path d="M234.091 195.702C236.993 195.702 239.344 193.541 239.344 190.875C239.344 188.209 236.993 186.047 234.091 186.047C231.19 186.047 228.838 188.209 228.838 190.875C228.838 193.541 231.19 195.702 234.091 195.702Z" fill="#FF6464"/>
<path d="M463.91 40.1534C466.15 40.1534 467.966 38.4847 467.966 36.4262C467.966 34.3677 466.15 32.699 463.91 32.699C461.67 32.699 459.854 34.3677 459.854 36.4262C459.854 38.4847 461.67 40.1534 463.91 40.1534Z" fill="#FF6464"/>
<path d="M51.7812 226.052C53.5731 226.052 55.0257 224.717 55.0257 223.071C55.0257 221.424 53.5731 220.089 51.7812 220.089C49.9894 220.089 48.5367 221.424 48.5367 223.071C48.5367 224.717 49.9894 226.052 51.7812 226.052Z" fill="#04162F"/>
<path d="M323.624 177.173C324.584 177.173 325.362 176.458 325.362 175.575C325.362 174.693 324.584 173.978 323.624 173.978C322.664 173.978 321.886 174.693 321.886 175.575C321.886 176.458 322.664 177.173 323.624 177.173Z" fill="#04162F"/>
<path d="M265.378 101.209C267.639 101.209 269.472 99.524 269.472 97.4459C269.472 95.3678 267.639 93.6832 265.378 93.6832C263.116 93.6832 261.283 95.3678 261.283 97.4459C261.283 99.524 263.116 101.209 265.378 101.209Z" fill="#EF7B20"/>
<path d="M289.673 30.2498C291.422 30.2498 292.84 28.9466 292.84 27.339C292.84 25.7314 291.422 24.4282 289.673 24.4282C287.924 24.4282 286.505 25.7314 286.505 27.339C286.505 28.9466 287.924 30.2498 289.673 30.2498Z" fill="#FFCD00"/>
<path d="M281.986 66.8829C283.068 65.818 284.613 65.534 286.003 66.244C286.737 66.5989 287.317 67.1669 288.128 67.4154C289.364 67.8058 290.561 67.3799 291.681 66.8474C293.844 65.818 295.273 64.8241 297.668 66.0665C298.943 66.7409 300.256 67.4154 301.762 66.9184C303.771 66.244 304.852 64.7531 307.17 64.5756C308.483 64.4691 309.796 64.7176 310.955 65.2855C311.689 65.6405 312.346 66.173 313.157 66.386C314.508 66.7764 315.397 66.244 316.44 65.4985C318.641 63.9366 321.307 63.6527 323.74 64.9661C324.396 65.321 324.976 64.3981 324.319 64.0431C322.736 63.1912 320.998 62.8362 319.182 63.1202C318.255 63.2622 317.328 63.5817 316.517 64.0786C315.32 64.7886 314.663 65.8535 312.886 65.1436C311.071 64.3981 309.796 63.5107 307.711 63.5107C305.509 63.5107 304.041 64.3626 302.264 65.4275C299.677 66.9539 298.286 64.5401 295.853 64.3271C294.23 64.1851 292.879 65.0371 291.527 65.747C290.213 66.4215 289.093 66.7764 287.703 66.0665C286.892 65.6405 286.235 65.0726 285.308 64.8951C283.763 64.6111 282.257 65.1435 281.175 66.173C280.634 66.5989 281.446 67.3799 281.986 66.8829Z" fill="#04162F"/>
<path d="M302.921 60.7418C304.312 59.7834 306.011 59.3219 307.749 59.7124C308.908 59.9609 309.719 60.7063 310.839 61.0968C312.771 61.7357 314.161 60.6353 315.745 59.7479C317.406 58.8249 318.333 59.0024 319.993 59.8189C320.959 60.3158 321.809 60.5643 322.968 60.4933C325.131 60.3513 329.341 57.831 330.693 60.5998C331.002 61.2388 332.006 60.6708 331.697 60.0673C330.847 58.3635 328.645 58.0795 326.83 58.4345C324.59 58.8959 322.89 59.9964 320.573 58.8959C319.453 58.3635 318.564 57.7245 317.251 57.973C316.17 58.1505 315.281 58.7894 314.393 59.3219C313.775 59.6769 313.118 60.1738 312.384 60.2093C311.303 60.2803 310.492 59.6059 309.565 59.1799C307.247 58.115 304.466 58.4345 302.419 59.8189C301.762 60.2448 302.342 61.1678 302.921 60.7418Z" fill="#EF7B20"/>
<path d="M39.4213 84.9155C41.9319 83.4601 44.7902 84.099 47.3008 85.2704C49.1162 86.1224 50.7771 87.7552 52.7469 88.2167C56.8026 89.1751 57.4206 83.7796 60.7423 82.8566C64.6048 81.7917 67.3472 86.4418 70.9779 83.957C73.0251 82.5726 74.6859 81.7207 77.3124 81.8627C79.7458 82.0047 82.0633 82.7501 84.3036 83.5311C84.9988 83.7796 85.3078 82.7501 84.6126 82.5017C80.9432 81.2238 76.4627 79.8749 72.6774 81.5432C71.7118 81.9692 71.0552 82.6081 70.2054 83.1406C68.6218 84.1345 67.5403 83.5666 66.0339 82.7856C64.4117 81.9337 62.8281 81.3657 60.9354 81.7207C59.2359 82.0402 57.8841 82.9631 56.9184 84.241C56.3391 84.9865 55.9142 85.9449 55.1803 86.6193C53.5581 88.0037 51.9358 86.7258 50.5453 85.8384C47.1463 83.7086 42.6658 81.7562 38.7647 83.9925C38.2239 84.383 38.8033 85.3059 39.4213 84.9155Z" fill="#EF7B20"/>
<path d="M45.9489 329.349C48.6526 332.473 53.1331 337.301 59.2745 342.519C73.7588 354.907 92.8782 365.592 167.502 386.677C174.145 388.559 183.261 391.079 194.192 393.99C201.067 389.375 211.843 382.382 225.555 374.644C247.301 362.362 256.61 359.273 268.815 351.961C280.827 344.755 297.166 332.509 312.886 310.997C286.969 305.921 258.927 299.07 229.379 289.805C215.01 285.297 201.337 280.541 188.398 275.677C140.928 293.568 93.4576 311.459 45.9489 329.349Z" fill="white" stroke="#04162F" stroke-width="3" stroke-miterlimit="10"/>
<path d="M167.27 343.335C169.394 339.892 172.562 337.301 176.501 335.668C177.197 335.384 176.579 334.461 175.922 334.745C171.828 336.413 168.506 339.182 166.266 342.767C165.879 343.406 166.884 343.938 167.27 343.335Z" fill="#FFCD00"/>
<path d="M166.652 343.655C167.965 345.039 169.974 344.542 171.287 343.442C172.407 342.519 173.257 341.312 174.261 340.318C175.458 339.146 176.772 338.081 178.162 337.052C178.742 336.626 177.93 335.881 177.351 336.307C175.806 337.443 174.338 338.649 173.025 339.998C171.866 341.17 169.394 344.826 167.502 342.874C166.961 342.377 166.15 343.158 166.652 343.655Z" fill="#FFCD00"/>
<path d="M176.347 335.597C176.81 335.952 177.312 336.342 177.776 336.697C178.008 336.875 178.355 336.91 178.587 336.697C178.78 336.52 178.819 336.129 178.587 335.952C178.124 335.597 177.621 335.206 177.158 334.851C176.926 334.674 176.579 334.638 176.347 334.851C176.154 335.029 176.115 335.419 176.347 335.597Z" fill="#FFCD00"/>
<path d="M168.081 339.892C167.424 339.289 167.424 338.756 168.081 338.33C168.39 338.046 168.738 337.798 169.085 337.585C169.549 337.265 170.012 336.946 170.437 336.626C171.132 336.165 173.373 334.248 173.913 335.703C174.145 336.342 175.265 336.058 175.034 335.419C173.913 332.473 170.36 335.384 168.931 336.378C167.927 337.088 166.42 337.869 166.304 339.182C166.227 340.07 166.806 340.815 167.733 340.992C168.506 341.028 168.815 339.999 168.081 339.892Z" fill="#FFCD00"/>
<path d="M170.515 344.187C173.064 346.352 174.145 349.405 176.192 351.89C177.853 353.913 180.094 355.511 182.643 356.505C188.321 358.741 194.81 357.569 199.406 353.807C199.947 353.345 199.136 352.6 198.595 353.061C193.883 356.895 187.046 357.711 181.561 354.801C179.051 353.487 177.235 351.57 175.768 349.263C174.454 347.169 173.334 345.039 171.364 343.406C170.785 342.98 169.974 343.726 170.515 344.187Z" fill="#FFCD00"/>
<path d="M177.66 337.904C180.48 337.975 183.299 338.046 186.119 338.117C189.093 338.188 191.99 338.436 194.539 339.998C199.02 342.767 202.535 348.624 198.595 353.097C198.131 353.629 198.943 354.375 199.406 353.842C203.153 349.618 201.183 344.01 197.204 340.566C191.913 336.058 184.381 336.981 177.699 336.839C176.888 336.839 176.926 337.904 177.66 337.904Z" fill="#FFCD00"/>
<path d="M173.836 340.531C176.463 341.809 179.051 343.158 181.523 344.649C184.188 346.246 185.037 349.192 186.273 351.748C186.582 352.387 187.587 351.819 187.278 351.216C186.196 349.015 185.385 345.997 183.222 344.436C180.596 342.519 177.39 341.028 174.416 339.608C173.759 339.289 173.18 340.211 173.836 340.531Z" fill="#FFCD00"/>
<path d="M183.57 345.252C186.235 345.003 188.9 344.755 191.565 344.507C192.299 344.436 192.299 343.371 191.565 343.442C188.9 343.69 186.235 343.939 183.57 344.187C182.836 344.258 182.836 345.323 183.57 345.252Z" fill="#FFCD00"/>
<path d="M183.686 345.785C185.887 346.388 188.012 347.204 190.02 348.198C190.677 348.518 191.256 347.595 190.599 347.275C188.514 346.21 186.312 345.359 183.995 344.755C183.299 344.578 182.99 345.607 183.686 345.785Z" fill="#FFCD00"/>
<path d="M112.113 333.467C115.049 335.171 119.491 337.407 125.285 338.827C131.04 340.247 144.018 343.406 153.519 336.555C160.974 331.195 162.48 322.356 162.094 322.179C161.785 322.037 160.24 327.823 154.717 330.911C149.425 333.893 144.056 332.331 136.331 331.763C130.576 331.337 122.349 331.337 112.113 333.467Z" fill="#FF6464"/>
<path d="M249.387 327.61C252.708 325.338 255.992 323.066 259.313 320.759C259.893 320.368 259.313 319.41 258.734 319.836C255.412 322.108 252.129 324.38 248.807 326.687C248.189 327.077 248.769 328 249.387 327.61Z" fill="#04162F"/>
<path d="M251.511 335.739C260.781 328.746 270.09 321.717 279.36 314.724C279.939 314.298 279.128 313.553 278.549 313.979C269.279 320.972 259.97 328 250.7 334.993C250.121 335.419 250.97 336.165 251.511 335.739Z" fill="#04162F"/>
<path d="M270.669 329.811C273.45 327.078 276.424 324.593 279.669 322.321C280.248 321.895 279.669 320.972 279.089 321.398C275.768 323.705 272.716 326.261 269.858 329.065C269.317 329.562 270.128 330.308 270.669 329.811Z" fill="#04162F"/>
<path d="M195.08 317.174C206.513 310.997 217.56 304.253 228.104 296.94C228.684 296.55 228.104 295.591 227.525 296.017C216.942 303.33 205.895 310.11 194.501 316.251C193.844 316.606 194.423 317.529 195.08 317.174Z" fill="#04162F"/>
<path d="M189.904 314.05C194.539 311.778 198.788 308.903 202.496 305.46C203.037 304.963 202.187 304.217 201.685 304.714C198.015 308.086 193.883 310.891 189.325 313.127C188.668 313.446 189.248 314.369 189.904 314.05Z" fill="#04162F"/>
<path d="M177.003 309.506C184.728 303.862 192.647 298.431 200.719 293.213C201.337 292.823 200.758 291.9 200.14 292.29C191.99 297.544 183.995 303.046 176.192 308.761C175.574 309.187 176.424 309.932 177.003 309.506Z" fill="#04162F"/>
<path d="M109.062 224.739C98.054 227.614 88.5909 230.987 80.8659 234.146C71.171 238.121 57.0729 243.978 41.8933 255.338C35.7133 259.952 31.1169 264.957 21.9628 274.932C18.5251 278.659 15.0103 282.706 14.7013 288.421C14.624 289.947 14.3923 294.42 17.4823 297.757C22.658 303.33 33.2799 301.59 38.4943 300.774C44.0176 299.887 47.9574 298.218 49.6183 297.544C72.8319 287.889 68.8149 291.367 88.2046 282.564C103.423 275.677 111.032 272.199 114.933 268.649C118.564 265.312 133.396 251.752 128.22 238.654C124.319 228.928 111.766 225.449 109.062 224.739Z" fill="white"/>
<path opacity="0.22" d="M118.989 228.182C116.749 230.56 113.041 234.288 108.019 238.441C83.2606 258.887 64.064 258.319 45.833 274.258C40.0779 279.263 32.4688 287.675 26.7909 301.59C29.456 301.626 33.5889 301.519 38.5329 300.774C48.8071 299.212 55.9528 295.804 59.8539 293.994C86.93 281.499 93.1486 283.629 109.719 272.27C117.328 267.052 121.19 264.354 123.701 259.1C129.804 246.286 121.461 232.122 118.989 228.182Z" fill="#969696"/>
<path d="M108.908 224.242C93.6894 228.963 78.3939 233.72 64.2185 240.748C51.2405 247.173 39.4985 255.55 29.6105 265.596C24.7438 270.53 19.7225 275.926 16.5166 281.96C13.8901 286.859 12.0361 293.958 17.096 298.112C22.2331 302.336 29.9581 302.726 36.4471 301.732C44.5198 300.454 52.3993 297.295 60.0084 294.562C77.1965 288.35 93.9211 281.073 110.028 272.767C110.684 272.447 110.105 271.524 109.448 271.844C95.9683 278.766 82.0633 285.013 67.772 290.515C60.6264 293.284 53.3649 295.875 46.0261 298.218C38.8033 300.525 30.8465 302.442 23.3146 300.135C4.81326 294.491 22.1945 274.861 29.5333 267.265C38.8419 257.645 49.8114 249.48 61.9783 243.126C76.8489 235.388 93.0714 230.312 109.217 225.307C109.912 225.058 109.603 224.029 108.908 224.242Z" fill="#04162F"/>
<path d="M129.495 278.446C130.576 277.488 132.276 276.103 134.632 274.826C138.07 272.944 139.846 272.909 146.644 270.779C152.477 268.933 154.91 267.762 156.996 266.484C158.734 265.419 162.017 263.395 161.592 262.26C161.09 260.911 155.489 261.55 149.309 262.26C144.172 262.828 143.979 263.183 139.537 263.608C132.971 264.212 132.508 263.502 130.113 264.389C125.941 265.916 121.075 270.282 122.388 274.045C123.547 277.381 128.993 278.34 129.495 278.446Z" fill="#04162F"/>
<path d="M114.933 226.23C111.805 227.721 109.139 229.531 109.139 229.531C104.35 232.761 101.221 236.276 99.3674 238.654C99.6377 240.109 99.8695 241.6 100.14 243.056C90.8699 247.173 83.4539 250.936 78.394 253.598C64.3731 260.982 56.2232 266.874 39.9235 278.659C34.6319 282.458 28.8381 286.824 26.8296 294.03C26.3275 295.875 25.1687 300.171 27.2931 304.821C29.7265 310.181 34.825 312.488 36.37 313.127C39.7304 314.512 42.9362 314.618 48.0734 314.157C59.3133 313.163 67.9266 310.465 71.1711 309.435C82.6041 305.708 90.9085 301.946 92.917 301.023C102.264 296.727 114.972 290.267 129.572 280.86C129.649 280.47 130.113 278.233 128.529 276.246C127.177 274.542 124.821 273.654 122.465 273.974C124.937 272.838 128.375 271.027 131.928 268.188C138.572 262.863 141.739 257.077 143.748 253.314C144.906 251.149 148.151 244.689 149.425 235.637C150.198 230.028 149.966 225.307 149.541 221.899C148.112 221.864 126.366 220.799 114.933 226.23Z" fill="white"/>
<path opacity="0.21" d="M141.198 228.679C137.027 238.441 131.967 244.937 128.722 248.593C109.139 270.779 80.8659 275.323 47.996 300.668C44.1721 303.614 40.271 306.844 41.0821 308.299C42.9747 311.743 70.2826 302.442 84.767 296.869C103.964 289.486 118.796 281.606 128.491 275.962C126.83 274.968 125.13 273.974 123.469 273.015C126.096 271.879 129.842 269.962 133.55 266.803C138.456 262.65 140.851 258.497 143.091 254.45C145.717 249.729 149.348 243.127 149.541 234.146C149.618 230.383 149.078 227.295 148.614 225.271C146.181 226.372 143.709 227.508 141.198 228.679Z" fill="#9E9E9E"/>
<path d="M149.541 226.017C149.387 242.239 143.477 258.745 129.572 269.394C122.388 274.861 113.35 277.736 104.891 281.073C95.7366 284.694 86.5825 288.279 77.4283 291.9C67.1155 295.982 56.764 300.029 46.4511 304.111C45.7558 304.395 46.3738 305.282 47.0305 305.034C66.034 297.544 85.0375 290.054 104.041 282.564C112.693 279.156 121.963 276.281 129.418 270.885C135.713 266.306 140.735 260.307 144.211 253.669C148.691 245.079 150.623 235.566 150.7 226.052C150.7 225.342 149.541 225.342 149.541 226.017Z" fill="#04162F"/>
<path d="M98.7879 238.689C98.7879 240.287 99.0197 241.742 99.5604 243.233C99.6377 243.02 99.7535 242.843 99.8308 242.63C86.0803 248.842 72.5615 255.586 59.8925 263.573C53.7898 267.407 47.8802 271.56 42.2796 275.997C37.0266 280.186 31.3101 284.694 27.9111 290.373C25.0528 295.13 24.3962 300.597 26.9454 305.602C29.5719 310.784 34.8249 314.086 40.9277 314.76C48.1892 315.576 55.9914 313.873 62.9825 312.24C70.1282 310.571 77.0807 308.264 83.84 305.531C99.7535 299.177 114.47 290.622 129.07 282.138C129.688 281.783 129.109 280.86 128.491 281.215C104.62 295.13 79.6299 309.613 51.0861 313.34C43.8246 314.299 35.9837 314.298 30.6921 308.938C26.0184 304.182 25.2846 297.615 28.2973 291.9C31.2328 286.362 36.6017 282.032 41.5457 277.985C46.9918 273.512 52.7856 269.395 58.7724 265.561C71.9049 257.112 86.0031 250.049 100.372 243.553C100.603 243.446 100.719 243.162 100.642 242.949C100.14 241.529 99.908 240.145 99.908 238.689C99.9467 238.015 98.7879 238.015 98.7879 238.689Z" fill="#04162F"/>
<path d="M123.585 274.293C127.332 274.364 129.881 277.452 128.954 280.754C128.761 281.428 129.881 281.712 130.074 281.038C131.194 277.026 128.104 273.299 123.585 273.228C122.851 273.228 122.851 274.293 123.585 274.293Z" fill="#04162F"/>
<path d="M130.267 278.304C132.546 276.778 134.516 275.323 137.22 274.506C139.924 273.69 142.627 272.802 145.292 271.808C150.43 269.927 155.489 267.797 160.395 265.454C161.051 265.135 160.472 264.212 159.815 264.531C154.562 267.052 149.194 269.323 143.67 271.276C141.005 272.199 138.301 272.98 135.636 273.867C133.396 274.613 131.581 276.103 129.688 277.381C129.109 277.772 129.688 278.695 130.267 278.304Z" fill="#04162F"/>
<path d="M136.988 263.822C141.16 264.496 145.177 263.68 149.232 262.792C151.55 262.295 153.867 261.763 156.223 261.585C157.305 261.514 158.618 261.337 159.661 261.585C162.481 262.26 160.318 264.354 158.888 265.241C158.27 265.632 158.85 266.555 159.468 266.164C161.013 265.206 163.021 263.644 161.978 261.692C161.09 260.059 158.155 260.378 156.532 260.485C150.043 260.911 143.863 263.857 137.297 262.792C136.563 262.686 136.254 263.715 136.988 263.822Z" fill="#04162F"/>
<path d="M165.107 148.668C164.18 149.52 162.867 150.869 161.708 152.751C160.047 155.413 159.043 158.679 159.661 169.541C160.124 177.563 161.167 183.882 161.978 188.212C162.674 191.833 163.369 194.779 163.871 196.838C168.467 215.297 177.119 237.199 180.325 245.15C182.72 251.113 186.042 259.171 190.252 268.72C188.398 270.211 185.887 272.518 183.724 275.89C182.566 277.665 180.866 280.328 181.6 281.038C182.218 281.606 184.574 281.002 192.454 275.855C196.973 277.488 200.449 279.156 202.805 280.434C206.204 282.244 209.101 284.126 213.659 284.694C214.933 284.871 216.015 284.871 216.749 284.871C216.053 283.593 214.817 281.641 212.654 279.76C210.067 277.523 207.131 276.671 207.208 276.494C207.286 276.352 209.68 277.346 212.925 278.269C215.783 279.085 218.912 279.263 225.208 279.618C226.096 279.653 227.409 279.724 227.989 279.014C228.645 278.162 227.911 276.707 227.641 276.103C225.71 272.27 218.68 269.891 216.131 269.075C217.135 269.501 219.684 270.353 222.929 269.891C225.903 269.465 227.95 268.152 228.8 267.478C227.1 267.158 225.323 266.839 223.508 266.59C214.47 265.277 206.127 265.135 198.711 265.632C197.591 263.005 196.007 258.781 194.732 253.421C193.342 247.67 193.651 246.179 192.106 237.695C190.87 230.88 190.097 226.869 188.205 221.828C186.428 217.178 184.42 213.557 182.875 211.108C177.235 188.07 175.034 177.528 174.223 172.416C173.643 168.724 172.909 166.133 171.48 160.915C170.862 158.679 170.206 156.513 168.776 153.887C167.54 151.579 166.15 149.84 165.107 148.668Z" fill="white"/>
<path opacity="0.11" d="M165.107 148.669C166.42 148.74 166.729 155.165 167.54 163.293C167.54 163.293 168.661 174.546 174.068 201.808C179.746 230.525 191.874 260.662 196.162 270.956C202.689 275.571 209.255 280.221 215.783 284.836C214.161 284.871 211.573 284.8 208.637 283.913C205.895 283.097 204.427 282.032 200.256 279.795C198.634 278.908 196.123 277.63 192.956 276.139C186.274 280.257 182.488 281.89 181.6 281.038C180.596 280.044 183.531 275.678 190.445 267.975C189.286 265.703 187.703 262.473 185.887 258.568C182.72 251.823 174.995 234.643 166.536 205.961C159.584 182.391 159.391 175.504 159.7 170.109C160.318 159.744 163.33 148.527 165.107 148.669Z" fill="#686868"/>
<path d="M164.682 149.024C166.922 150.692 168.043 153.141 169.047 155.555C170.051 158.004 170.824 160.525 171.519 163.08C172.948 168.476 174.029 173.943 175.265 179.374C177.737 190.449 180.209 201.488 182.681 212.564C182.836 213.238 183.956 212.954 183.802 212.28C181.214 200.778 178.626 189.242 176.077 177.741C174.841 172.239 173.759 166.666 172.214 161.235C170.978 156.904 169.549 151.224 165.532 148.314C164.953 147.852 164.103 148.598 164.682 149.024Z" fill="#04162F"/>
<path d="M161.283 189.419C168.351 216.397 177.892 242.772 189.788 268.294C190.097 268.933 191.063 268.365 190.793 267.762C178.935 242.346 169.433 216.042 162.403 189.135C162.21 188.496 161.129 188.78 161.283 189.419Z" fill="#04162F"/>
<path d="M182.913 211.996C193.033 228.289 191.372 247.919 197.629 265.384C197.861 266.022 198.981 265.738 198.749 265.1C192.454 247.528 194.114 227.863 183.917 211.463C183.531 210.86 182.527 211.392 182.913 211.996Z" fill="#04162F"/>
<path d="M189.866 268.33C187.664 270.743 185.347 273.122 183.222 275.642C182.141 276.92 180.441 278.837 180.827 280.612C181.214 282.28 182.643 281.819 183.802 281.18C186.776 279.582 189.75 277.914 192.724 276.281C193.381 275.926 192.801 275.003 192.145 275.358C190.329 276.352 188.514 277.346 186.737 278.34C185.771 278.872 184.806 279.369 183.879 279.902C183.686 280.008 182.797 280.647 182.604 280.612C182.411 280.292 182.218 279.937 182.063 279.618C182.218 279.227 182.411 278.837 182.604 278.446C183.531 276.813 184.96 275.429 186.235 274.009C187.741 272.376 189.209 270.743 190.715 269.111C191.179 268.543 190.329 267.797 189.866 268.33Z" fill="#04162F"/>
<path d="M198.518 265.916C203.655 266.058 208.792 266.235 213.89 266.484C216.401 266.626 218.873 266.768 221.384 266.91C223.856 267.087 226.328 267.158 228.684 267.975C229.379 268.223 229.688 267.194 228.993 266.945C226.907 266.2 224.744 266.058 222.542 265.916C219.916 265.738 217.289 265.596 214.663 265.454C209.294 265.171 203.925 264.958 198.518 264.851C197.784 264.851 197.784 265.916 198.518 265.916Z" fill="#04162F"/>
<path d="M192.801 276.636C201.183 278.766 207.672 285.617 216.787 285.368C217.174 285.368 217.444 285.049 217.328 284.694C216.053 280.115 210.8 278.482 207.595 275.287C207.092 274.79 206.281 275.536 206.783 276.033C209.835 279.05 215.011 280.647 216.208 284.978C216.401 284.765 216.594 284.516 216.749 284.303C207.826 284.552 201.299 277.701 193.072 275.607C192.376 275.429 192.067 276.459 192.801 276.636Z" fill="#04162F"/>
<path d="M207.054 276.281C211.148 277.843 215.436 279.014 219.8 279.689C221.693 279.973 223.663 280.221 225.594 280.079C226.714 280.008 228.143 279.902 228.8 278.908C230.268 276.672 226.753 274.506 225.208 273.406C222.002 271.169 218.41 269.501 214.586 268.401C213.891 268.188 213.581 269.217 214.277 269.43C217.174 270.282 219.916 271.418 222.465 272.944C223.701 273.69 224.899 274.506 226.057 275.394C226.56 275.82 227.255 276.281 227.602 276.849C228.568 278.411 226.984 278.943 225.633 279.014C219.607 279.476 212.886 277.31 207.363 275.216C206.668 275.003 206.397 276.033 207.054 276.281Z" fill="#04162F"/>
<path d="M214.393 269.572C218.834 270.069 225.208 271.879 228.761 268.472C229.263 267.975 228.452 267.229 227.95 267.726C226.173 269.43 223.74 269.466 221.345 269.253C219.028 269.04 216.71 268.756 214.393 268.507C213.659 268.436 213.659 269.501 214.393 269.572Z" fill="#04162F"/>
<path d="M209.564 272.589C212.23 273.832 215.126 274.435 218.023 275.11C221.422 275.89 224.551 276.955 227.409 278.801C228.027 279.192 228.607 278.269 227.989 277.878C225.401 276.21 222.62 275.11 219.568 274.364C216.362 273.583 213.118 273.051 210.144 271.666C209.487 271.347 208.908 272.27 209.564 272.589Z" fill="#04162F"/>
<path d="M116.749 146.787C126.482 143.486 134.709 142.811 140.117 142.776C149.387 142.669 159.97 142.563 165.416 148.81C167.502 151.224 168.12 155.413 169.317 163.79C170.553 172.345 171.133 176.605 169.819 181.681C168.236 187.751 166.189 186.828 161.785 195.986C158.541 202.731 158.927 204.79 154.717 215.687C152.863 220.479 151.202 224.278 150.082 226.656C147.764 227.366 145.254 227.969 142.55 228.431C128.375 230.88 116.053 228.005 108.212 225.307C111.071 199.145 113.929 172.984 116.749 146.787Z" fill="#EF7B20"/>
<path d="M119.336 146.29C117.675 146.929 115.281 148.065 112.925 150.088C110.955 151.757 109.448 153.602 108.019 156.052C104.543 161.944 103.577 167.659 103.191 169.896C100.565 185.692 99.792 192.117 99.792 192.117C98.1698 205.89 97.629 211.285 97.7835 218.491C97.8608 222.68 98.1698 225.839 99.0968 229.531C100.217 233.897 101.878 237.269 105.006 242.629C109.487 250.403 113.311 255.87 115.899 259.668C118.989 264.176 123.353 270.743 128.452 278.943C129.379 281.321 130.383 283.806 131.426 286.433C138.726 304.643 135.057 293.745 136.022 296.408C136.37 297.402 137.104 299.567 139.267 300.774C139.808 301.093 140.657 301.555 141.159 301.342C142.164 300.88 142.009 297.437 137.49 285.084C137.374 284.729 139.383 289.734 144.172 293.674C145.833 295.023 147.455 295.946 148.691 296.514C149.348 299.319 149.966 302.229 150.545 305.247C151.279 309.116 151.897 312.878 152.399 316.499C152.09 317.458 151.704 318.948 151.82 320.794C151.897 321.895 151.974 323.35 152.94 324.948C153.442 325.764 154.678 327.823 156.609 328C157.652 328.107 158.541 327.539 160.317 326.474C162.674 325.054 163.137 324.167 164.296 324.202C164.914 324.202 165.802 324.486 166.845 325.764C166.806 323.315 166.073 322.463 165.416 322.072C164.334 321.469 163.369 322.25 160.858 321.93C159.893 321.824 158.309 321.611 157.266 320.652C155.76 319.268 156.107 316.925 156.146 316.322C156.455 313.34 155.258 305.531 150.468 287.711C150.854 288.953 152.168 289.734 153.481 289.557C154.871 289.379 155.953 288.208 155.837 286.859C153.404 284.765 150.97 282.67 148.498 280.576C148.189 278.446 147.88 276.281 147.533 274.08C146.297 266.448 144.752 259.171 143.052 252.249C142.009 252.533 140.966 252.817 139.923 253.066C140.619 257.645 141.314 262.224 142.009 266.803C139.421 266.519 136.833 266.2 134.246 265.916C133.203 264.283 131.889 262.082 130.499 259.42C129.417 257.361 127.216 253.137 125.246 247.706C122.735 240.713 121.229 236.595 121.113 231.057C121.036 228.608 121.229 225.094 119.298 220.87C118.564 219.308 117.791 218.101 117.212 217.32C118.062 212.67 118.796 208.694 119.336 205.499C123.006 184.237 121.113 190.271 124.087 170.109C124.628 166.346 125.169 163.045 124.396 158.572C123.546 153.212 121.152 148.952 119.336 146.29Z" fill="white"/>
<path opacity="0.17" d="M116.748 146.787C115.242 149.627 113.234 153.851 111.495 159.176C108.328 168.937 107.942 176.889 107.787 182.497C107.092 206.032 106.706 217.817 109.178 228.253C115.551 255.267 131.233 273.441 137.567 280.647C142.898 286.682 147.919 291.296 151.627 294.491C151.125 295.201 150.12 296.372 148.691 296.514C147.069 296.656 145.756 295.308 144.172 293.675C142.28 291.687 139.885 289.025 137.181 285.794C138.224 288.315 139.576 291.829 140.619 296.23C141.739 300.916 141.314 301.271 141.159 301.342C140.155 301.768 136.756 296.834 135.134 294.207C132.971 290.764 130.344 285.723 128.49 278.908C123.315 270.601 118.911 263.999 115.937 259.633C107.324 246.925 104.35 243.624 101.492 235.956C100.526 233.294 98.4016 227.046 97.7836 218.846C97.5518 215.545 97.6677 213.628 99.1741 199.181C100.68 184.805 101.183 180.687 102.148 175.043C104.041 163.968 105.393 160.631 107.131 157.614C110.144 152.431 114.006 148.917 116.748 146.787Z" fill="#8E8E8E"/>
<path d="M119.182 145.758C110.723 148.846 106.242 156.442 104.002 164.145C101.26 173.516 100.101 183.385 99.0968 193.04C98.0539 202.979 96.4703 213.238 97.4359 223.213C98.3629 232.832 103.152 240.926 108.405 249.09C114.856 259.1 121.306 269.075 127.718 279.085C128.104 279.689 129.108 279.156 128.722 278.553C123.315 270.14 117.907 261.763 112.5 253.35C107.324 245.327 101.376 237.305 99.3286 228.04C97.3201 218.811 98.7106 209.191 99.5603 199.891C100.449 190.129 101.53 180.332 103.539 170.677C105.509 161.412 108.946 150.621 119.452 146.787C120.186 146.539 119.877 145.509 119.182 145.758Z" fill="#04162F"/>
<path d="M119.336 147.248C126.83 156.158 123.817 168.831 122.426 179.089C120.688 191.975 118.95 204.825 117.212 217.71C117.135 218.385 118.293 218.385 118.371 217.71C120.186 204.151 122.04 190.555 123.855 176.995C125.207 166.914 127.448 155.164 120.147 146.503C119.684 145.971 118.873 146.716 119.336 147.248Z" fill="#04162F"/>
<path d="M114.315 215.723C118.293 218.278 119.22 222.964 119.954 227.046C120.804 231.625 121.654 236.169 122.774 240.677C124.976 249.587 128.104 258.319 133.396 266.129C133.782 266.697 134.786 266.164 134.4 265.596C128.684 257.183 125.516 247.635 123.315 237.979C122.272 233.4 121.615 228.786 120.572 224.206C119.761 220.586 118.332 217 114.894 214.8C114.276 214.409 113.697 215.332 114.315 215.723Z" fill="#04162F"/>
<path d="M134.439 266.768C136.872 266.768 139.267 266.803 141.584 267.513C142.28 267.726 142.589 266.697 141.893 266.484C139.46 265.738 136.949 265.703 134.439 265.703C133.705 265.703 133.705 266.768 134.439 266.768Z" fill="#04162F"/>
<path d="M142.357 272.341C142.202 275.323 144.404 277.523 146.528 279.511C149.387 282.209 152.399 284.8 155.489 287.285C156.03 287.747 156.88 287.001 156.3 286.54C153.751 284.481 151.279 282.386 148.884 280.186C146.567 278.056 143.322 275.642 143.516 272.341C143.554 271.666 142.395 271.666 142.357 272.341Z" fill="#04162F"/>
<path d="M127.911 279.05C129.417 282.99 130.924 286.93 132.739 290.764C133.666 292.681 134.632 294.597 135.713 296.443C136.679 298.076 137.683 300.135 139.112 301.448C139.73 302.016 140.58 302.407 141.391 301.839C142.357 301.129 142.048 299.745 141.816 298.786C140.889 294.313 139.46 289.912 137.76 285.617C137.49 284.978 136.37 285.262 136.64 285.901C137.876 288.953 138.919 292.077 139.769 295.236C140.001 296.088 140.194 296.94 140.426 297.792C140.58 298.396 141.314 300.206 140.85 300.703C140.039 301.519 137.683 297.437 137.413 296.976C133.821 291.225 131.426 284.942 129.031 278.73C128.799 278.127 127.679 278.411 127.911 279.05Z" fill="#04162F"/>
<path d="M137.142 285.794C139.19 288.634 141.237 291.651 143.863 294.101C145.408 295.556 148.537 297.899 150.932 296.869C153.442 295.84 151.704 293.036 150.738 291.651C148.266 288.137 145.756 284.623 143.284 281.073C142.898 280.505 141.893 281.038 142.28 281.606C143.94 283.948 145.601 286.291 147.262 288.634C148.035 289.699 148.769 290.799 149.541 291.864C150.352 293 152.592 295.946 149.425 295.875C146.953 295.84 144.752 293.462 143.322 291.864C141.43 289.734 139.808 287.463 138.147 285.155C137.722 284.694 136.718 285.226 137.142 285.794Z" fill="#04162F"/>
<path d="M142.357 281.393C144.829 284.481 147.88 287.321 151.434 289.344C152.592 290.018 154.137 290.586 155.373 289.734C156.262 289.096 156.455 288.173 155.991 287.285C155.644 286.682 154.639 287.214 154.987 287.818C154.33 288.989 153.597 289.309 152.786 288.776C152.515 288.67 152.283 288.563 152.052 288.421C151.588 288.173 151.163 287.889 150.738 287.605C149.773 286.966 148.807 286.256 147.919 285.475C146.219 284.055 144.713 282.493 143.361 280.825C142.898 280.292 141.893 280.825 142.357 281.393Z" fill="#04162F"/>
<path d="M139.151 283.167C141.739 288.172 145.408 292.574 150.043 296.124C150.623 296.55 151.434 295.804 150.854 295.378C146.297 291.864 142.666 287.569 140.117 282.635C139.846 282.031 138.842 282.564 139.151 283.167Z" fill="#04162F"/>
<path d="M139.306 254.131C140.426 260.556 141.546 266.945 142.666 273.37C142.782 274.045 143.902 273.761 143.786 273.086C142.666 266.661 141.546 260.272 140.426 253.847C140.31 253.172 139.19 253.492 139.306 254.131Z" fill="#04162F"/>
<path d="M140.426 254.131C140.928 253.421 142.395 252.214 143.322 253.314C143.516 253.563 143.516 254.379 143.554 254.699C143.747 255.941 143.979 257.219 144.172 258.461C144.558 260.84 144.983 263.254 145.37 265.632C146.181 270.424 146.992 275.216 147.803 280.008C147.919 280.683 149.039 280.399 148.923 279.724C147.803 272.98 146.644 266.271 145.524 259.526C145.254 257.822 144.945 256.119 144.674 254.379C144.558 253.669 144.597 252.569 143.94 252.072C142.473 250.972 140.194 252.427 139.421 253.563C139.035 254.166 140.039 254.699 140.426 254.131Z" fill="#04162F"/>
<path d="M150.275 288.598C152.361 298.36 154.099 308.157 155.528 318.026C155.644 318.7 156.803 318.7 156.687 318.026C155.258 308.086 153.481 298.183 151.356 288.314C151.241 287.64 150.12 287.924 150.275 288.598Z" fill="#04162F"/>
<path d="M148.266 296.656C149.657 303.294 150.854 309.968 151.859 316.677C151.974 317.351 153.095 317.067 152.979 316.393C151.974 309.684 150.777 303.01 149.387 296.372C149.232 295.698 148.112 295.982 148.266 296.656Z" fill="#04162F"/>
<path d="M152.013 316.677C152.67 318.168 154.253 319.162 156.03 318.984C156.764 318.913 156.764 317.848 156.03 317.919C154.833 318.061 153.597 317.493 153.133 316.393C152.863 315.754 151.743 316.038 152.013 316.677Z" fill="#04162F"/>
<path d="M152.09 316.393C150.622 319.943 150.97 324.841 154.253 327.503C155.489 328.533 157.073 328.852 158.618 328.249C160.51 327.539 163.948 322.818 165.995 325.445C166.42 326.013 167.424 325.48 166.999 324.912C164.914 322.179 161.824 324.557 159.931 326.119C158.502 327.29 156.802 328.107 155.064 326.758C154.099 326.013 153.442 324.841 153.017 323.776C152.129 321.433 152.245 318.984 153.21 316.677C153.481 316.038 152.361 315.754 152.09 316.393Z" fill="#04162F"/>
<path d="M155.914 317.99C156.223 319.8 157.305 321.682 159.236 322.392C161.708 323.279 167.386 321.22 166.343 325.622C166.188 326.296 167.309 326.58 167.463 325.906C167.927 324.025 167.154 322.037 164.952 321.575C163.369 321.22 161.785 321.895 160.202 321.575C158.27 321.149 157.343 319.41 157.034 317.742C156.88 317.032 155.798 317.351 155.914 317.99Z" fill="#04162F"/>
<path d="M134.748 147.249C135.327 148.526 136.061 149.485 137.065 150.159C138.61 151.26 140.387 151.473 141.584 151.473C142.859 150.124 144.134 148.775 145.408 147.426C146.335 148.243 148.769 150.195 152.245 150.301C153.79 150.337 155.374 150.017 157.653 148.917C163.601 146.042 167.193 141.392 168.931 138.871C172.176 134.008 173.296 129.677 173.914 127.051C174.879 123.004 176.424 116.153 173.45 108.45C172.369 105.681 171.867 104.297 170.553 103.126C163.099 96.452 137.104 101.422 129.611 116.614C129.688 116.65 125.169 125.844 134.748 147.249Z" fill="white"/>
<path opacity="0.18" d="M166.498 106.853C167.077 109.018 157.614 110.154 150.159 119.916C144.906 126.838 144.095 133.547 143.941 135.038C143.4 140.433 144.52 144.835 145.447 147.462C143.67 146.468 141.893 145.438 140.155 144.444C138.417 145.545 136.718 146.61 134.98 147.71C132.739 145.332 127.525 139.12 126.559 129.926C126.25 126.873 125.439 119.348 130.113 113.171C139.846 100.321 165.571 103.41 166.498 106.853Z" fill="#8E8E8E"/>
<path d="M139.112 120.91C143.207 120.058 146.49 118.886 148.769 117.928C153.442 115.976 156.687 113.81 159.777 111.751C162.596 109.87 164.875 108.131 166.498 106.817C168.39 107.598 172.021 109.373 173.373 112.887C173.72 113.846 173.914 114.84 173.798 118.141C173.643 121.833 173.566 124.424 172.793 127.761C171.21 134.896 167.695 140.469 165.571 143.45C168.236 142.314 172.291 140.149 175.613 136.138C180.016 130.849 180.712 125.382 181.252 120.377C182.179 111.751 183.068 103.658 177.467 97.9784C171.751 92.1569 162.403 92.0859 154.717 92.0504C150.43 92.0149 145.022 91.9794 139.035 94.2157C128.993 98.0139 128.8 103.942 114.74 117.679C104.427 127.725 101.26 127.725 98.6334 133.937C96.0456 140.007 94.1143 151.757 102.11 158.111C110.105 164.429 123.238 161.66 130.538 155.874C132.237 154.526 138.147 149.449 138.533 141.143C138.881 133.724 134.632 128.577 133.473 127.264C129.997 123.501 129.765 119.383 131.581 117.892C132.778 116.898 135.404 116.65 137.22 117.892C138.726 118.957 139.035 120.519 139.112 120.91Z" fill="#04162F"/>
<path d="M138.147 141.569C140.155 143.699 142.434 145.616 144.906 147.284C146.953 148.669 149.696 150.621 152.322 150.905C154.987 151.189 158.155 149.52 160.318 148.278C162.828 146.858 165.03 145.012 166.884 142.918C170.785 138.374 172.523 132.659 173.527 127.015C174.647 120.768 174.802 114.378 172.832 108.273C172.639 107.634 171.519 107.882 171.712 108.557C173.527 114.165 173.527 120.022 172.6 125.737C171.751 131.026 170.36 136.422 167.077 140.895C164.219 144.835 159.004 148.988 153.751 149.733C150.893 150.124 147.764 147.817 145.563 146.361C143.168 144.764 141.005 142.882 139.035 140.824C138.456 140.291 137.645 141.037 138.147 141.569Z" fill="#04162F"/>
<path d="M162.905 123.607C162.21 126.128 161.515 128.683 160.82 131.204C160.472 132.411 160.163 133.618 159.815 134.824C159.584 135.605 159.39 137.984 158.618 138.481C158.888 138.587 159.197 138.694 159.468 138.8C158.85 137.38 158.154 136.031 157.227 134.718C156.841 134.15 155.837 134.682 156.223 135.25C157.073 136.457 157.768 137.735 158.348 139.084C158.463 139.368 158.85 139.617 159.197 139.404C160.086 138.836 160.124 138.055 160.395 137.096C160.781 135.676 161.167 134.221 161.553 132.801C162.365 129.819 163.176 126.838 163.987 123.856C164.18 123.252 163.098 122.968 162.905 123.607Z" fill="#04162F"/>
<path d="M148.769 135.393C149.194 138.516 152.168 140.93 155.644 140.753C156.378 140.717 156.378 139.652 155.644 139.688C152.863 139.83 150.275 137.948 149.927 135.393C149.812 134.718 148.653 134.718 148.769 135.393Z" fill="#04162F"/>
<path d="M157.493 125.414C158.115 123.87 158.069 122.431 157.389 122.199C156.708 121.967 155.652 123.032 155.03 124.576C154.407 126.12 154.454 127.559 155.134 127.791C155.814 128.023 156.87 126.959 157.493 125.414Z" fill="#04162F"/>
<path d="M168.645 127.01C169.268 125.466 169.222 124.026 168.542 123.795C167.861 123.563 166.805 124.627 166.183 126.171C165.56 127.715 165.607 129.155 166.287 129.387C166.967 129.618 168.023 128.554 168.645 127.01Z" fill="#04162F"/>
<path d="M155.528 117.111C156.725 115.869 158.657 116.082 159.468 117.573C159.815 118.176 160.781 117.644 160.472 117.04C159.352 114.982 156.378 114.627 154.717 116.366C154.215 116.863 155.026 117.608 155.528 117.111Z" fill="#04162F"/>
<path d="M167.038 118.425C168.12 117.395 170.476 116.721 171.171 118.567C171.403 119.206 172.523 118.922 172.291 118.283C171.326 115.692 168.004 116.011 166.227 117.679C165.725 118.141 166.536 118.922 167.038 118.425Z" fill="#04162F"/>
<path d="M134.632 127.051C131.851 126.092 130.769 122.152 131.658 119.774C132.121 118.531 133.473 117.36 134.979 117.36C137.104 117.36 138.263 119.419 138.572 121.087C138.688 121.762 139.808 121.478 139.692 120.803C138.997 117.076 134.4 114.52 131.387 118.034C128.877 121.016 130.46 126.767 134.323 128.08C135.018 128.293 135.327 127.264 134.632 127.051Z" fill="#04162F"/>
<path d="M151.82 127.974C151.781 127.974 151.743 127.974 151.704 127.974C151.395 127.974 151.125 128.222 151.125 128.506C151.125 128.79 151.395 129.038 151.704 129.038C151.743 129.038 151.781 129.038 151.82 129.038C152.129 129.038 152.399 128.79 152.399 128.506C152.399 128.222 152.129 127.974 151.82 127.974Z" fill="#FF6464"/>
<path d="M154.524 130.032C155.258 130.032 155.258 128.968 154.524 128.968C153.79 128.968 153.79 130.032 154.524 130.032Z" fill="#FF6464"/>
<path d="M152.09 131.772C152.824 131.772 152.824 130.707 152.09 130.707C151.357 130.707 151.357 131.772 152.09 131.772Z" fill="#FF6464"/>
<path d="M165.184 132.127C165.918 132.127 165.918 131.062 165.184 131.062C164.45 131.062 164.45 132.127 165.184 132.127Z" fill="#FF6464"/>
<path d="M168.583 131.878C169.317 131.878 169.317 130.813 168.583 130.813C167.811 130.813 167.811 131.878 168.583 131.878Z" fill="#FF6464"/>
<path d="M165.725 134.86C166.459 134.86 166.459 133.795 165.725 133.795C164.991 133.795 164.991 134.86 165.725 134.86Z" fill="#FF6464"/>
<path d="M145.022 147.071C143.747 148.42 142.473 149.769 141.198 151.118C140.696 151.65 141.546 152.396 142.009 151.863C143.284 150.514 144.559 149.165 145.833 147.817C146.335 147.32 145.524 146.574 145.022 147.071Z" fill="#04162F"/>
<path d="M134.246 147.533C135.404 150.053 137.915 151.899 140.851 152.396C141.584 152.538 141.893 151.508 141.16 151.366C138.456 150.905 136.331 149.307 135.25 147C134.98 146.361 133.975 146.894 134.246 147.533Z" fill="#04162F"/>
<path d="M392.879 288.137C394.849 289.238 397.089 290.303 399.522 291.332C405.084 293.639 410.26 294.882 414.547 295.556C415.32 296.834 416.44 298.68 417.753 300.881C421.307 306.844 424.049 311.565 424.783 312.772C430.693 322.96 438.958 338.721 440.194 341.099C439.229 341.561 437.606 342.128 435.637 341.915C433.319 341.667 431.774 340.389 430.538 339.289C424.474 334.106 422.697 331.941 422.697 331.941C418.603 326.971 414.625 322.534 406.629 313.731C404.582 311.494 402.921 309.72 401.917 308.655C397.591 308.3 393.265 307.945 388.978 307.554C390.291 301.094 391.604 294.598 392.879 288.137Z" fill="#04162F"/>
<path d="M422.852 242.204C414.509 242.488 407.904 242.488 405.161 242.452C401.531 242.417 396.316 242.346 373.412 241.245C362.481 240.713 360.588 240.606 355.412 240.464C346.722 240.216 338.726 240.216 329.263 241.92C323.083 243.02 320.032 244.156 317.251 246.179C315.976 247.102 311.843 250.226 310.53 255.551C310.337 256.403 309.874 258.497 310.607 262.65C311.766 269.359 314.702 274.506 316.71 277.559C319.568 281.89 323.276 285.972 329.418 290.835C332.933 293.604 340.928 299.603 357.46 306.986C365.455 310.571 376.309 314.866 389.75 318.629C389.441 316.854 389.093 314.298 388.978 311.246C388.707 304.253 389.827 298.928 390.832 294.065C391.604 290.48 392.801 285.759 394.81 280.328C392.068 278.908 389.364 277.452 386.621 276.032C394.462 277.31 401.299 277.878 406.706 278.091C418.603 278.624 427.139 277.772 437.259 276.742C445.293 275.926 449.387 275.5 451.55 274.293C462.829 267.975 466.498 248.309 459.005 241.884C454.91 238.299 450.082 241.245 422.852 242.204Z" fill="white"/>
<path opacity="0.13" d="M390.638 295.165C386.042 293.249 379.553 290.16 372.407 285.475C356.88 275.251 343.091 260.378 345.447 257.574C346.722 256.083 352.013 258.852 360.24 261.656C380.982 268.684 398.865 268.471 411.38 268.294C423.161 268.152 441.005 266.661 461.901 259.881C461.438 262.401 460.125 267.265 455.721 271.063C452.902 273.512 449.889 274.542 447.842 275.145C434.323 279.227 418.294 278.766 413.504 278.588C406.166 278.304 396.702 277.772 385.733 276.671C388.977 277.665 392.222 278.659 395.466 279.653C393.883 284.8 392.261 289.983 390.638 295.165Z" fill="#898989"/>
<path d="M418.333 241.565C401.569 242.346 384.922 241.281 368.197 240.393C359.816 239.967 351.434 239.648 343.052 239.967C335.791 240.251 328.182 240.819 321.461 243.446C315.899 245.611 311.187 249.41 310.028 255.054C308.831 260.946 310.685 267.336 313.311 272.731C319.182 284.729 330.615 293.284 342.589 299.993C357.228 308.158 373.025 315.044 389.634 319.126C390.368 319.304 390.677 318.274 389.943 318.097C375.69 314.618 362.21 308.974 349.387 302.371C337.143 296.088 324.976 288.634 317.405 277.523C313.852 272.341 311.341 266.377 310.916 260.201C310.685 256.793 311.187 253.314 313.311 250.439C315.088 248.025 317.792 246.25 320.611 244.973C327.139 242.026 334.825 241.387 341.971 241.068C349.696 240.713 357.459 240.926 365.146 241.281C382.913 242.133 400.526 243.411 418.333 242.594C419.066 242.594 419.105 241.529 418.333 241.565Z" fill="#04162F"/>
<path d="M345.215 258.035C361.013 267.052 377.815 274.471 395.312 280.15C396.007 280.363 396.316 279.334 395.621 279.121C378.201 273.441 361.476 266.058 345.795 257.113C345.138 256.758 344.559 257.681 345.215 258.035Z" fill="#04162F"/>
<path d="M395.042 279.298C390.02 291.687 388.05 304.963 389.209 318.132C389.286 318.807 390.445 318.807 390.368 318.132C389.171 305.034 391.14 291.9 396.162 279.582C396.432 278.943 395.312 278.659 395.042 279.298Z" fill="#04162F"/>
<path d="M392.492 288.492C394.887 290.657 398.981 291.758 402.11 292.752C406.05 294.03 410.105 294.988 414.238 295.627C414.972 295.733 415.281 294.704 414.547 294.597C410.878 294.03 407.247 293.249 403.732 292.148C401.801 291.545 399.87 290.87 398.016 290.125C396.393 289.486 394.578 288.882 393.342 287.711C392.763 287.25 391.952 287.995 392.492 288.492Z" fill="#04162F"/>
<path d="M414.084 295.805C422.968 310.5 431.542 325.374 439.808 340.389C440.156 340.992 441.16 340.46 440.812 339.857C432.547 324.841 423.933 310.003 415.088 295.272C414.74 294.669 413.736 295.201 414.084 295.805Z" fill="#04162F"/>
<path d="M389.518 307.377C392.608 307.767 395.737 308.122 398.827 308.512C400.14 308.69 401.415 308.761 402.458 309.648C402.998 310.11 403.462 310.713 403.887 311.246C404.698 312.24 405.548 313.234 406.359 314.227C409.874 318.523 413.389 322.782 417.135 326.935C420.92 331.089 424.899 335.064 429.341 338.614C432.315 340.992 436.757 344.578 440.658 341.525C441.237 341.063 440.387 340.318 439.847 340.779C436.95 343.051 433.474 340.424 431.195 338.685C429.032 337.017 426.985 335.242 425.015 333.361C421.114 329.704 417.56 325.8 414.122 321.788C410.723 317.813 407.556 313.589 404.041 309.684C402.612 308.086 401.029 307.731 398.866 307.483C395.776 307.093 392.647 306.738 389.557 306.347C388.784 306.241 388.784 307.306 389.518 307.377Z" fill="#04162F"/>
<path d="M387.471 276.991C408.522 279.76 429.959 279.156 450.778 275.145C451.511 275.003 451.202 273.974 450.469 274.116C429.881 278.091 408.599 278.695 387.78 275.962C387.046 275.855 386.737 276.884 387.471 276.991Z" fill="#04162F"/>
<path d="M378.008 126.305C378.162 124.246 378.278 121.62 378.201 118.602C378.124 115.017 377.892 115.479 377.544 109.87C377.197 104.297 377.274 102.061 375.768 101.386C375.072 101.067 374.145 101.173 373.527 101.528C373.103 101.777 372.523 102.309 371.982 106.285C371.673 108.592 371.828 108.876 371.403 109.338C370.322 110.544 368.661 109.586 366.614 110.864C365.416 111.609 365.802 112.035 364.103 113.597C362.326 115.23 361.785 114.875 360.627 116.153C360.434 116.366 358.541 118.496 358.966 121.087C359.043 121.584 359.275 123.11 360.318 123.501C361.322 123.891 362.172 122.897 362.867 123.252C363.639 123.607 363.33 125.027 363.215 127.725C363.099 130.742 363.021 132.34 363.717 133.902C364.335 135.322 365.416 136.351 366.382 137.025C366.614 138.232 366.923 140.078 367.193 142.35C368.081 150.23 367.232 154.1 367.193 159.495C367.193 168.227 369.433 175.007 370.901 179.445C372.909 185.515 375.42 190.307 377.313 193.572C379.553 193.714 382.836 193.679 386.583 192.685C390.754 191.549 393.303 189.81 398.441 186.154C407.865 179.48 412.616 176.072 414.547 174.262C422.234 167.056 423.354 163.116 423.701 161.27C423.972 159.85 424.899 155.164 422.156 153.248C419.877 151.65 416.285 152.786 414.779 153.248C411.882 154.135 410.376 155.555 407.788 157.543C402.921 161.27 402.689 160.56 398.054 163.968C395.119 166.133 391.14 169.434 386.969 174.155C386.699 172.842 386.235 170.783 385.617 168.263C384.42 163.329 383.454 160.276 382.913 158.253C381.175 152.076 380.519 147.036 379.205 136.99C378.819 134.221 378.394 130.6 378.008 126.305Z" fill="white"/>
<path opacity="0.18" d="M375.343 101.031C375.613 103.8 375.69 107.456 374.918 111.609C373.914 117.111 371.905 121.407 370.244 124.282C369.974 124.921 369.317 126.554 369.858 128.577C370.669 131.63 373.489 133.014 373.952 133.227C375.188 139.191 376.424 145.119 377.66 151.082C379.785 161.483 381.87 171.919 383.879 182.32C387.471 179.409 391.102 176.498 394.771 173.552C403.307 166.772 411.805 160.169 420.225 153.744C418.41 153.461 416.594 153.141 414.779 152.857C413.388 153.673 411.457 154.809 409.14 156.265C404.736 159.034 399.947 162.015 394.771 166.452C392.685 168.227 389.943 170.712 387.008 173.942C386.66 171.884 386.042 168.866 385.076 165.175C383.802 160.453 383.3 159.885 382.373 156.407C380.905 150.94 381.948 151.331 380.248 141.924C378.433 131.807 378.317 131.204 378.317 131.204C378.047 129.784 377.853 128.825 377.738 127.441C377.351 123.146 378.124 119.916 378.317 119.028C378.819 116.117 378.742 110.864 375.343 101.031Z" fill="#A5A4A4"/>
<path d="M417.328 151.047C406.011 157.152 395.621 164.571 386.505 173.268C386.003 173.765 386.814 174.51 387.317 174.013C396.355 165.388 406.668 158.04 417.907 151.97C418.564 151.65 417.985 150.727 417.328 151.047Z" fill="#04162F"/>
<path d="M386.853 176.924C387.896 173.729 387.394 170.535 386.467 167.375C385.385 163.648 384.149 159.957 383.222 156.194C381.291 148.562 380.055 140.824 379.476 133.014C379.437 132.34 378.278 132.34 378.317 133.014C378.858 140.22 379.978 147.391 381.639 154.49C382.488 158.075 383.493 161.625 384.613 165.139C385.81 168.902 387.085 172.771 385.772 176.676C385.54 177.279 386.66 177.563 386.853 176.924Z" fill="#04162F"/>
<path d="M379.476 132.482C378.819 129.571 377.235 122.755 372.446 123.714C370.862 124.033 369.317 125.382 369.433 126.98C369.588 129.18 371.982 128.471 373.257 129.642C373.798 130.139 374.609 129.358 374.068 128.896C373.412 128.293 372.755 128.293 371.982 127.974C369.008 126.802 372.253 123.785 374.57 125.063C377.042 126.412 377.815 130.387 378.356 132.766C378.51 133.44 379.63 133.156 379.476 132.482Z" fill="#04162F"/>
<path d="M378.471 128.009C379.205 119.703 378.78 111.29 376.965 103.09C376.772 102.167 376.579 100.96 375.497 100.534C374.493 100.144 373.45 100.712 372.909 101.457C372.06 102.664 372.06 104.545 371.905 105.93C371.673 108.166 371.673 110.438 371.867 112.674C371.905 113.349 373.064 113.349 373.025 112.674C372.909 111.112 372.832 109.515 372.909 107.953C372.987 106.498 372.832 104.226 373.527 102.948C373.566 102.806 373.605 102.629 373.643 102.487C374.957 101.741 375.613 101.812 375.69 102.7C375.999 103.161 375.999 104.119 376.115 104.687C376.463 106.391 376.733 108.131 376.965 109.87C377.738 115.905 377.853 121.975 377.313 128.009C377.235 128.684 378.394 128.684 378.471 128.009Z" fill="#04162F"/>
<path d="M371.905 109.053C371.017 107.279 368.622 109.621 368.043 110.438C366.498 112.568 366.459 115.266 367.425 117.608C368.004 118.922 369.356 120.697 371.055 119.667C373.296 118.354 373.025 114.059 372.755 112.035C372.678 111.361 371.519 111.361 371.596 112.035C371.789 113.491 371.789 114.911 371.48 116.366C371.364 116.863 371.326 117.573 370.978 117.999C370.051 119.206 368.931 118.247 368.506 117.289C367.888 115.904 367.656 114.343 368.081 112.887C368.274 112.213 368.583 111.574 369.008 111.006C369.201 110.757 370.669 109.195 370.862 109.621C371.21 110.225 372.214 109.692 371.905 109.053Z" fill="#04162F"/>
<path d="M368.699 109.87C364.528 110.047 362.712 113.81 363.253 117.218C363.485 118.638 364.026 120.093 365.725 120.448C367.386 120.803 368.699 119.703 369.047 118.283C369.202 117.608 368.081 117.324 367.927 117.999C367.154 121.087 364.682 118.709 364.412 117.218C364.257 116.295 364.219 115.372 364.451 114.449C364.914 112.532 366.498 111.006 368.699 110.935C369.472 110.899 369.472 109.835 368.699 109.87Z" fill="#04162F"/>
<path d="M363.948 113.1C361.322 113.846 358.889 116.331 359.545 119.028C360.163 121.655 363.717 121.975 365.146 119.774C365.532 119.17 364.528 118.638 364.142 119.241C363.408 120.342 361.708 120.626 360.897 119.383C360.434 118.673 360.588 117.679 360.858 116.969C361.399 115.55 362.712 114.556 364.257 114.13C364.953 113.917 364.682 112.887 363.948 113.1Z" fill="#04162F"/>
<path d="M359.661 117.395C358.386 118.993 357.575 122.152 359.507 123.678C360.24 124.246 361.245 124.282 362.094 123.856C363.215 123.288 363.678 122.117 364.026 121.052C364.257 120.413 363.137 120.129 362.906 120.768C362.674 121.442 362.481 122.117 361.901 122.613C360.936 123.465 359.931 122.933 359.622 121.868C359.236 120.484 359.738 119.064 360.627 117.963C361.09 117.36 360.086 116.827 359.661 117.395Z" fill="#04162F"/>
<path d="M361.824 122.968C364.064 127.441 360.086 134.789 366.498 137.274C367.193 137.522 367.502 136.493 366.807 136.244C363.446 134.931 363.601 131.168 363.755 128.364C363.833 126.27 363.794 124.317 362.828 122.401C362.519 121.797 361.515 122.33 361.824 122.968Z" fill="#04162F"/>
<path d="M365.802 137.167C367.116 142.031 366.42 147.071 366.382 152.041C366.343 156.833 366.652 161.625 367.347 166.346C368.699 175.504 371.48 184.45 375.497 192.898C375.806 193.537 376.811 192.969 376.502 192.366C372.291 183.491 369.472 174.049 368.236 164.394C367.656 159.85 367.425 155.271 367.541 150.727C367.656 146.077 368.159 141.463 366.923 136.883C366.768 136.209 365.648 136.493 365.802 137.167Z" fill="#04162F"/>
<path d="M376.27 193.927C387.239 196.199 396.896 188.07 404.814 182.355C409.487 178.983 414.045 175.504 418.448 171.848C422.349 168.582 426.019 165.068 428.607 160.808C428.954 160.205 427.989 159.673 427.602 160.276C425.169 164.287 421.77 167.624 418.101 170.677C414.122 174.013 409.951 177.208 405.741 180.332C401.492 183.456 397.205 186.65 392.608 189.313C387.819 192.117 382.295 194.105 376.579 192.898C375.845 192.756 375.536 193.785 376.27 193.927Z" fill="#04162F"/>
<path d="M378.665 77.603C378.935 77.0705 379.205 76.2541 379.089 75.3312C378.858 73.6983 377.467 72.7044 376.463 71.7105C374.879 70.1841 374.339 68.6577 373.025 65.7824C372.33 64.2561 370.051 59.2509 372.446 54.3168C374.223 50.6606 377.66 48.9922 378.356 48.6728C379.398 48.1758 383.493 46.3299 387.471 47.9628C390.754 49.3472 391.99 52.2935 393.033 54.8493C393.381 55.7012 395.119 60.0319 393.767 65.25C393.419 66.5989 392.956 68.4802 391.488 70.4326C390.445 71.817 389.634 72.2784 388.823 73.6983C387.819 75.4022 387.626 77.106 387.587 78.2065C388.321 78.2065 389.055 78.242 389.789 78.242C389.711 79.2004 389.595 80.1233 389.518 81.0817C387.857 80.7268 387.239 80.9042 387.008 81.1882C386.621 81.7207 387.51 82.5726 387.123 83.3181C387.008 83.531 386.66 83.9925 384.574 84.2765C382.643 84.525 379.707 84.9154 378.858 83.6375C378.394 82.9276 378.974 82.2886 378.394 81.5787C377.853 80.9043 376.811 80.7978 375.999 80.7978C375.266 78.9164 375.381 78.2774 375.69 78.1C375.961 77.9225 376.347 78.1355 377.158 78.0645C377.815 78.029 378.317 77.816 378.665 77.603Z" fill="white"/>
<path d="M383.686 77.3545C383.609 73.5208 383.493 69.7226 383.415 65.8889C383.415 65.2144 382.257 65.2144 382.257 65.8889C382.334 69.7226 382.45 73.5208 382.527 77.3545C382.527 78.0289 383.686 78.0289 383.686 77.3545Z" fill="#FFCD00"/>
<path d="M377.776 61.5582C379.205 63.1201 380.75 64.6465 382.334 66.1018C382.566 66.3148 382.952 66.3148 383.145 66.1018C384.265 65.0014 385.385 63.901 386.505 62.8006C387.123 62.1972 388.166 61.4872 388.514 60.6708C388.668 60.3158 388.282 60.0318 387.973 59.9963C387.935 59.9963 387.935 59.9963 387.935 59.9963C387.703 59.9608 387.433 60.1738 387.394 60.3868V60.4223C387.239 61.0967 388.359 61.3807 388.514 60.7063V60.6708C388.321 60.8128 388.128 60.9193 387.973 61.0612H388.012C387.819 60.8483 387.626 60.5998 387.471 60.3868C387.162 61.1322 385.617 62.1972 384.999 62.8006C384.149 63.6525 383.3 64.5045 382.411 65.3209C382.682 65.3209 382.952 65.3209 383.222 65.3209C381.639 63.8655 380.132 62.3391 378.665 60.7773C378.124 60.2803 377.274 61.0257 377.776 61.5582Z" fill="#FFCD00"/>
<path d="M383.261 65.2855C383.416 62.5877 383.493 59.8899 383.57 57.1921C383.57 56.5177 382.411 56.5177 382.411 57.1921C382.334 59.8899 382.257 62.5877 382.102 65.2855C382.064 65.9599 383.222 65.9599 383.261 65.2855Z" fill="#FFCD00"/>
<path d="M354.447 50.6606C358 51.5126 361.322 53.5359 364.566 55.0623C365.223 55.3818 365.802 54.4588 365.146 54.1394C361.785 52.542 358.425 50.4831 354.756 49.6312C354.06 49.4537 353.751 50.4831 354.447 50.6606Z" fill="#FF6464"/>
<path d="M372.253 48.2823C370.708 46.6139 369.201 44.981 367.656 43.3127C367.154 42.7802 366.343 43.5612 366.845 44.0581C368.39 45.7265 369.897 47.3594 371.442 49.0277C371.944 49.5602 372.755 48.7792 372.253 48.2823Z" fill="#FF6464"/>
<path d="M385.54 43.0642C385.772 39.621 386.274 36.2132 387.008 32.841C387.162 32.1666 386.042 31.8826 385.888 32.557C385.154 36.0358 384.652 39.5145 384.381 43.0642C384.304 43.7387 385.463 43.7387 385.54 43.0642Z" fill="#FF6464"/>
<path d="M398.943 49.4182C401.492 47.3239 404.118 45.3006 406.745 43.3482C407.324 42.9222 406.513 42.1768 405.934 42.6028C403.307 44.5906 400.681 46.614 398.132 48.6728C397.591 49.1343 398.402 49.8797 398.943 49.4182Z" fill="#FF6464"/>
<path d="M403.925 59.8543C407.093 58.8249 410.221 57.76 413.35 56.6241C414.045 56.3756 413.736 55.3462 413.041 55.5947C409.912 56.7306 406.784 57.7955 403.616 58.8249C402.921 59.0379 403.191 60.0673 403.925 59.8543Z" fill="#FF6464"/>
<path d="M358.541 67.0958C360.511 66.4923 362.519 65.8889 364.489 65.2854C365.184 65.0725 364.875 64.043 364.18 64.256C362.21 64.8595 360.202 65.4629 358.232 66.0664C357.498 66.2794 357.807 67.3088 358.541 67.0958Z" fill="#FF6464"/>
<path d="M375.188 78.4194C375.884 79.3068 374.918 80.5137 375.768 81.4367C376.308 82.0401 377.158 82.1466 377.931 82.1821C381.716 82.3596 385.694 81.8271 389.518 81.6851C390.252 81.6496 390.252 80.5847 389.518 80.6202C386.428 80.7622 383.338 80.9042 380.248 81.0462C378.819 81.1172 376.811 81.6496 376.502 79.8748C376.347 79.0583 376.772 78.6679 376.193 77.9224C375.768 77.319 374.763 77.8514 375.188 78.4194Z" fill="#FFCD00"/>
<path d="M376.617 78.5969C381.021 78.6679 385.385 78.7389 389.789 78.8099C389.595 78.6324 389.402 78.4549 389.209 78.2774C389.286 79.0229 389.286 79.5908 389.132 80.3718C388.977 81.0462 390.098 81.3302 390.252 80.6557C390.445 79.8393 390.484 79.0938 390.368 78.2774C390.329 77.9934 390.136 77.745 389.789 77.745C385.385 77.674 381.021 77.603 376.617 77.532C375.884 77.532 375.884 78.5969 376.617 78.5969Z" fill="#FFCD00"/>
<path d="M378.201 81.5432C377.583 82.3241 377.738 83.3535 378.433 84.0635C379.514 85.1284 381.407 84.9509 382.836 84.9154C384.188 84.8799 386.042 84.9864 387.162 84.099C387.973 83.46 388.166 82.3951 387.587 81.5787C387.162 81.0107 386.158 81.5432 386.583 82.1111C387.819 83.815 383.416 83.815 382.836 83.8505C381.948 83.886 377.738 83.9925 379.205 82.0756C379.63 81.5432 378.626 81.0107 378.201 81.5432Z" fill="#FFCD00"/>
<path d="M379.205 77.745C379.901 74.8342 377.583 72.5269 376.077 70.1841C374.223 67.3088 372.562 64.1851 372.137 60.8128C371.751 57.8666 372.369 54.6718 374.3 52.2225C376.579 49.3472 380.557 48.2113 384.304 48.1758C391.99 48.0693 393.458 56.7662 393.419 62.2327C393.419 66.0309 392.067 68.9062 389.557 71.8525C387.857 73.8403 386.467 75.9701 387.046 78.5614C387.201 79.2359 388.321 78.9519 388.166 78.2775C387.394 74.8697 390.754 72.5979 392.492 69.9711C393.883 67.9123 394.462 65.4985 394.578 63.0847C394.771 58.7895 394.076 53.2519 391.025 49.8087C387.857 46.188 382.025 46.6139 377.815 48.3533C373.141 50.2347 370.862 54.7073 370.862 59.251C370.862 61.9842 371.751 64.682 372.987 67.1668C373.721 68.6577 374.609 70.1131 375.575 71.533C376.772 73.3078 378.587 75.2602 378.085 77.4965C377.931 78.1355 379.051 78.4194 379.205 77.745Z" fill="#FFCD00"/>
<path d="M415.049 151.65C419.8 148.633 430.383 142.776 445.254 141.782C464.798 140.433 479.051 148.313 483.609 151.082C484.15 156.052 484.768 163.648 484.574 172.948C484.188 190.2 481.33 198.116 480.326 213.344C479.824 221.012 479.669 232.158 481.639 245.895C475.073 247.919 463.755 250.545 449.657 249.551C437.143 248.664 427.409 245.292 421.422 242.701C421.113 237.518 420.534 229.673 419.298 220.16C417.83 208.943 416.324 201.559 415.551 197.406C413.775 187.325 412.423 172.274 415.049 151.65Z" fill="#EF7B20"/>
<path d="M396.973 297.615C394.037 298.68 391.604 299.425 389.905 299.922C382.566 302.052 379.553 302.123 376.154 304.679C375.382 305.247 374.339 306.17 372.33 308.868C369.317 312.985 367.27 316.961 364.258 324.238C361.477 330.982 359.275 336.378 357.228 344.116C356.262 347.737 355.606 350.825 355.181 353.133C356.88 352.423 359.584 351.18 362.519 349.121C370.669 343.442 372.794 337.159 381.214 325.8C382.952 323.457 385.617 319.978 389.248 315.896C391.141 314.654 394.346 312.879 398.672 311.92C401.569 311.317 404.08 311.246 405.973 311.317C405.664 310.11 405.316 308.903 405.007 307.696C402.342 304.324 399.677 300.987 396.973 297.615Z" fill="#04162F"/>
<path d="M390.87 291.012C391.372 291.261 392.145 291.616 392.994 292.148C396.664 294.491 398.325 297.544 399.522 299.638C404.968 309.223 406.05 308.442 409.487 315.967C410.916 319.091 411.882 321.753 412.5 323.599C414.895 322.747 418.41 321.434 422.62 319.623C432.431 315.399 439.499 311.281 461.283 296.976C479.514 284.978 464.489 294.491 492.57 275.003C493.574 274.329 500.565 269.466 507.093 261.266C511.419 255.87 512.732 252.533 513.118 249.374C513.389 247.351 514.084 242.168 510.453 237.873C508.058 235.033 504.93 233.897 503.616 233.471C500.411 232.371 496.046 231.945 488.514 234.11C480.828 236.347 475.459 239.683 465.725 246.357C458.193 251.54 453.597 254.912 449.696 257.681C436.95 266.803 426.212 274.506 412.423 281.606C407.402 284.126 400.14 287.605 390.87 291.012Z" fill="white"/>
<path opacity="0.18" d="M510.608 238.015C508.908 241.636 506.127 246.996 501.878 253.066C486.081 275.713 464.682 287.001 451.202 293.923C441.276 299.035 426.173 305.602 406.359 310.074C407.402 311.849 408.445 313.802 409.449 315.967C410.723 318.665 411.689 321.256 412.461 323.599C416.903 321.931 423.276 319.375 430.615 315.79C441.237 310.571 444.52 307.803 468.39 292.006C468.39 292.006 482.72 282.564 499.677 269.04C500.642 268.259 506.05 263.893 510.183 256.758C512.848 252.143 513.234 249.41 513.311 247.741C513.543 243.269 511.689 239.755 510.608 238.015Z" fill="#969696"/>
<path d="M391.913 291.296C408.985 284.197 425.092 275.323 440.04 264.957C447.456 259.846 454.64 254.45 462.095 249.41C469.279 244.547 476.733 239.683 484.806 236.098C492.454 232.726 503.501 230.88 509.681 237.767C515.861 244.653 511.921 254.131 506.977 260.485C501.724 267.265 494.849 272.767 487.78 277.843C480.248 283.274 472.523 288.528 464.837 293.817C448.46 305.14 431.658 316.357 412.346 323.066C411.65 323.315 411.959 324.344 412.655 324.096C430.538 317.884 446.336 307.838 461.592 297.402C469.704 291.829 477.815 286.22 485.849 280.541C493.072 275.465 500.217 270.105 505.895 263.538C510.955 257.716 515.474 250.333 513.466 242.594C511.573 235.388 504.196 231.697 496.471 231.981C487.394 232.3 479.012 237.447 471.674 241.884C463.717 246.712 456.185 252.107 448.653 257.503C439.731 263.893 430.731 270.14 421.113 275.678C411.534 281.215 401.569 286.114 391.256 290.373C390.638 290.657 391.218 291.58 391.913 291.296Z" fill="#04162F"/>
<path d="M390.6 291.474C393.806 292.716 395.891 295.875 397.861 298.396C399.793 300.845 401.569 303.365 403.23 305.921C406.706 311.317 409.603 316.996 411.921 322.889C412.191 323.528 413.311 323.244 413.041 322.605C410.607 316.428 407.556 310.465 403.887 304.821C402.033 301.981 400.024 299.212 397.861 296.55C396.007 294.278 394.153 291.651 391.218 290.515C390.484 290.302 389.904 291.19 390.6 291.474Z" fill="#04162F"/>
<path d="M396.818 297.082C393.303 298.218 389.827 299.354 386.312 300.526C383.145 301.555 379.707 302.407 376.695 303.791C374.184 304.927 372.794 306.951 371.48 309.151C369.781 311.956 368.236 314.795 366.73 317.671C361.013 328.888 356.957 340.779 354.601 352.955C354.524 353.31 354.872 353.771 355.296 353.594C360.511 351.926 364.489 348.447 367.85 344.542C371.944 339.785 375.575 334.674 379.167 329.598C382.45 324.983 385.308 319.588 389.943 315.931C392.261 314.121 394.926 313.127 397.9 312.559C400.642 312.027 403.346 311.601 405.663 310.039C406.281 309.648 405.702 308.725 405.084 309.116C402.612 310.749 399.638 311.068 396.741 311.707C394.269 312.24 392.029 313.127 390.02 314.547C385.733 317.564 383.029 322.072 380.21 326.19C376.579 331.444 372.794 336.662 368.777 341.702C365.146 346.246 360.974 350.683 355.026 352.564C355.258 352.777 355.49 352.99 355.721 353.203C358 341.525 361.786 330.13 367.154 319.339C368.468 316.712 369.858 314.156 371.326 311.601C372.832 308.974 374.261 306.028 377.274 304.643C380.441 303.223 384.033 302.336 387.317 301.271C390.561 300.206 393.844 299.141 397.089 298.076C397.823 297.899 397.552 296.869 396.818 297.082Z" fill="#04162F"/>
<path d="M369.086 193.466C374.03 216.362 379.012 239.257 383.956 262.153C403.539 263.112 423.083 264.07 442.666 265.028C438.765 241.103 434.903 217.178 431.002 193.289C410.376 193.36 389.75 193.395 369.086 193.466Z" fill="white" stroke="#04162F" stroke-width="3" stroke-miterlimit="10"/>
<path opacity="0.22" d="M413.35 193.324C414.547 199.785 415.474 206.778 415.976 214.303C417.251 233.258 415.397 249.978 412.655 263.573C422.659 264.07 432.662 264.567 442.705 265.028C438.804 241.103 434.941 217.178 431.04 193.289C425.131 193.324 419.221 193.324 413.35 193.324Z" fill="#898989"/>
<path d="M471.828 152.751C470.322 154.099 470.013 155.91 469.82 158.892C469.395 166.488 470.553 172.31 470.553 172.31C471.944 179.161 472.33 186.153 473.296 193.04C474.416 200.92 474.918 204.932 472.716 208.446C470.901 211.356 467.927 213.415 467.039 214.019C463.833 216.184 460.859 217.036 458.309 217.675C453.674 218.882 447.224 220.444 439.074 221.899C436.911 219.272 434.632 217.711 433.126 216.859C431.001 215.652 427.564 213.628 425.478 214.835C424.513 215.403 423.856 216.717 424.165 217.604C424.59 218.775 426.405 218.598 427.487 220.018C428.182 220.941 428.182 222.077 428.105 222.787C426.598 223.071 424.319 223.426 421.5 223.603C416.169 223.923 414.702 223.284 410.221 223.603C405.741 223.923 399.986 225.094 399.947 226.372C399.947 227.295 402.96 228.005 403.81 228.218C406.166 228.786 407.402 228.502 410.646 228.679C413.234 228.821 416.247 229.212 416.247 229.496C416.247 230.135 401.222 229.176 400.449 232.477C400.217 233.436 401.222 234.394 401.917 235.069C402.689 235.85 404.389 237.163 411.921 237.837C413.466 237.979 415.59 238.121 418.101 238.121C415.861 239.151 413.659 240.18 411.419 241.21C411.419 241.458 411.419 241.813 411.65 242.168C412.925 244.227 419.337 242.878 422.311 242.275C426.173 241.458 431.774 239.896 438.302 236.489C444.134 236.276 448.923 235.85 452.245 235.495C466.15 233.968 473.257 231.519 477.622 229.709C482.411 227.721 484.806 226.052 486.583 223.781C487.124 223.071 488.476 221.189 489.943 215.439C491.411 209.653 491.681 205.073 491.759 203.654C491.913 200.885 492.029 196.164 491.141 185.16C489.789 168.689 489.132 174.652 488.089 163.755C487.973 162.477 487.626 158.608 484.883 154.951C484.072 153.851 483.029 152.502 481.098 151.65C478.124 150.408 474.068 150.692 471.828 152.751Z" fill="white"/>
<path opacity="0.24" d="M479.205 151.118C479.978 153.638 481.021 157.33 481.948 161.838C482.527 164.678 484.188 173.552 483.609 196.519C483.222 211.001 482.411 212.989 481.137 214.906C477.699 220.018 472.098 222.219 460.936 226.656C451.666 230.312 445.524 232.761 436.602 234.039C432.508 234.643 426.212 235.211 418.139 238.192C416.942 238.618 410.685 240.961 410.955 242.062C411.187 242.913 415.281 242.736 418.873 242.559C423.045 242.346 425.208 242.239 427.989 241.494C430.229 240.89 434.13 239.506 438.147 236.205C444.404 236.24 449.619 235.85 453.481 235.424C459.661 234.749 466.652 233.968 474.841 230.844C480.055 228.857 483.725 227.401 486.583 223.816C487.355 222.858 488.823 220.728 490.291 213.948C491.411 208.801 491.874 203.725 491.874 197.406C491.874 194.211 491.372 188.78 490.407 177.918C489.596 169.079 490.368 178.912 487.703 161.98C487.433 160.24 487.008 157.507 484.806 154.951C483.029 152.822 480.75 151.686 479.205 151.118Z" fill="#898989"/>
<path d="M471.133 154.951C472.601 150.763 478.278 150.408 481.677 152.715C485.501 155.271 486.699 159.708 487.433 163.755C489.016 172.558 490.329 181.468 490.986 190.342C491.643 199.358 491.411 208.552 488.823 217.32C487.548 221.651 485.617 225.094 481.33 227.437C477.467 229.531 473.18 231.022 468.893 232.193C458.927 234.891 448.499 235.566 438.147 235.672C437.413 235.672 437.413 236.737 438.147 236.737C448.46 236.595 458.927 235.921 468.893 233.294C473.643 232.051 478.549 230.383 482.72 227.898C486.621 225.591 488.514 222.254 489.75 218.243C492.724 208.552 492.879 198.329 491.99 188.354C491.565 183.385 490.87 178.451 490.136 173.516C489.403 168.618 489.055 163.435 487.394 158.714C486.042 154.951 483.145 151.153 478.665 150.337C475.034 149.662 471.171 151.437 470.013 154.703C469.781 155.306 470.901 155.59 471.133 154.951Z" fill="#04162F"/>
<path d="M470.36 153.532C468.468 158.963 469.163 164.891 469.781 170.464C470.438 176.321 471.442 182.107 472.176 187.964C472.562 190.875 472.871 193.785 473.025 196.732C473.219 199.749 473.45 202.979 472.91 205.996C471.828 211.676 465.996 214.303 460.743 216.291C453.945 218.846 446.76 220.515 439.46 221.331C438.726 221.402 438.726 222.467 439.46 222.396C445.911 221.686 452.284 220.337 458.387 218.278C463.215 216.646 468.815 214.729 471.983 210.753C475.459 206.387 474.455 199.749 474.03 194.708C473.528 188.283 472.407 181.929 471.558 175.54C470.592 168.582 469.047 160.666 471.442 153.816C471.674 153.177 470.553 152.893 470.36 153.532Z" fill="#04162F"/>
<path d="M439.499 221.58C435.945 218.065 431.542 213.912 425.826 214.338C424.281 214.445 422.504 215.19 423.045 216.894C423.315 217.746 424.088 218.278 424.86 218.74C426.482 219.698 427.641 220.692 428.143 222.467C428.336 223.141 429.456 222.858 429.263 222.183C428.877 220.87 428.182 219.663 427.023 218.775C426.521 218.385 424.821 217.746 424.628 217.284C424.783 216.681 424.976 216.078 425.13 215.474C425.478 215.439 425.787 215.403 426.135 215.368C426.714 215.332 427.332 215.403 427.911 215.474C432.431 216.148 435.714 219.379 438.688 222.325C439.19 222.822 440.001 222.077 439.499 221.58Z" fill="#04162F"/>
<path d="M427.989 222.29C423.199 223.851 417.869 222.751 412.886 222.929C410.607 223 408.329 223.213 406.05 223.532C404.273 223.78 401.685 223.816 400.217 224.952C397.938 226.691 400.797 228.466 402.689 228.679C407.749 229.318 413.002 229.211 418.101 229.46C418.835 229.495 418.835 228.431 418.101 228.395C414.354 228.218 410.569 228.04 406.822 227.863C405.818 227.827 404.814 227.792 403.809 227.721C403.307 227.685 399.174 227.366 401.144 225.662C401.685 225.2 403.076 225.129 403.771 224.987C404.621 224.845 405.47 224.703 406.32 224.561C410.183 224.029 414.122 223.851 418.023 223.993C421.461 224.135 424.899 224.384 428.22 223.319C428.993 223.106 428.684 222.077 427.989 222.29Z" fill="#04162F"/>
<path d="M417.869 228.892C414.006 229.105 409.874 228.963 406.088 229.779C404.35 230.17 402.651 230.809 401.067 231.59C400.333 231.945 399.252 232.371 399.445 233.294C399.831 235.423 405.316 235.388 406.977 235.423C411.148 235.459 415.242 234.749 419.414 235.033C420.148 235.068 420.148 234.004 419.414 233.968C416.517 233.791 413.659 234.039 410.762 234.217C408.097 234.394 404.234 234.855 401.762 233.684C400.101 232.903 400.99 232.797 401.917 232.371C402.651 232.016 403.385 231.696 404.157 231.448C405.586 230.951 407.054 230.631 408.56 230.489C411.612 230.205 414.74 230.134 417.792 229.957C418.603 229.921 418.603 228.856 417.869 228.892Z" fill="#04162F"/>
<path d="M401.647 235.53C406.668 237.908 412.23 238.902 417.83 238.334C418.564 238.263 418.564 237.199 417.83 237.27C412.423 237.802 407.054 236.915 402.226 234.607C401.569 234.323 400.99 235.211 401.647 235.53Z" fill="#04162F"/>
<path d="M417.985 237.66C415.088 238.263 411.882 239.151 410.453 241.778C410.337 242.026 410.376 242.381 410.646 242.523C412.693 243.375 414.779 243.268 416.981 243.197C419.839 243.055 422.736 242.913 425.594 242.487C430.461 241.778 435.134 240.145 438.726 236.95C439.267 236.488 438.456 235.708 437.915 236.204C434.671 239.115 430.422 240.606 426.019 241.352C423.508 241.778 420.998 241.955 418.487 242.062C416.131 242.168 413.504 242.523 411.264 241.6C411.341 241.849 411.419 242.097 411.457 242.345C412.732 239.967 415.667 239.257 418.294 238.725C418.989 238.512 418.68 237.482 417.985 237.66Z" fill="#04162F"/>
<path d="M416.247 105.752C415.088 108.273 414.933 110.757 414.702 113.775C414.586 115.301 414.354 120.093 416.092 126.128C417.174 129.89 418.332 133.973 421.925 138.055C425.053 141.605 428.645 143.592 430.924 144.622C432.508 144.196 434.207 143.699 436.023 143.024C437.799 142.386 439.422 141.676 440.889 141.001C440.967 142.315 441.237 144.657 442.705 147.178C443.941 149.343 445.524 150.763 446.529 151.544C447.687 151.082 449.001 150.479 450.391 149.556C453.674 147.391 455.49 144.728 456.455 143.06C455.915 141.001 455.412 138.658 455.103 136.067C454.563 131.452 454.717 127.37 455.103 124.033C455.953 124.033 457.305 123.927 458.696 123.288C461.824 121.833 462.867 118.815 463.331 117.395C464.451 114.059 463.833 111.219 463.408 109.409C463.022 107.811 461.708 102.238 456.494 98.085C449.966 92.9379 441.816 93.5768 438.302 93.8253C430.808 94.4287 419.877 97.8365 416.247 105.752Z" fill="white"/>
<path opacity="0.29" d="M449.194 100.073C449.696 102.238 450.159 105.149 450.237 108.557C450.237 109.551 450.314 115.337 448.344 121.904C445.061 132.766 437.761 140.327 434.323 143.592C436.679 142.776 439.808 141.463 443.091 139.226C447.147 136.457 449.735 133.369 451.318 131.239C451.859 136.635 452.4 141.995 452.94 147.391C454.099 146.184 455.258 144.977 456.417 143.77C455.721 140.575 455.103 136.777 454.988 132.446C454.872 129.18 455.065 126.199 455.374 123.572C455.953 123.714 456.996 123.856 458.193 123.501C458.502 123.43 459.661 123.075 461.013 121.655C463.176 119.419 463.64 116.792 463.833 115.692C464.026 114.52 464.18 112.781 463.64 110.118C462.79 105.823 461.67 100.215 457.344 98.7239C454.138 97.6944 450.816 99.1853 449.194 100.073Z" fill="#898989"/>
<path d="M414.779 110.828C413.659 108.486 412.539 105.184 413.388 101.599C414.663 96.3101 419.375 93.5413 424.165 89.8496C428.645 86.4419 434.594 81.1883 440.658 73.2724C440.078 76.2897 439.46 79.2714 438.881 82.2887C441.353 80.2653 444.095 78.171 447.069 76.0767C449.001 74.7278 450.932 73.4854 452.786 72.314C452.245 72.9884 450.893 74.8698 450.816 77.5675C450.739 80.5493 452.207 82.6082 452.709 83.2826C453.249 82.6082 454.138 81.6142 455.258 80.3718C456.841 78.668 457.305 78.313 458.116 77.2481C459.777 75.0827 460.009 73.6629 460.318 73.6984C460.82 73.7693 461.013 76.9641 460.086 89.7076C461.901 87.8263 463.717 85.9094 465.493 84.028C465.802 88.1812 466.15 92.3344 466.459 96.4876C466.845 98.4754 467.154 101.386 466.691 104.794C466.15 108.592 464.875 111.538 463.833 113.491C463.021 112.816 461.824 112.035 460.279 111.964C458.425 111.893 457.807 112.852 456.61 112.781C454.022 112.603 453.636 107.882 450.43 104.155C447.301 100.499 442.782 99.3274 439.924 98.5819C437.259 97.9075 429.109 95.8131 422.079 100.321C416.749 103.729 415.204 109.089 414.779 110.828Z" fill="#04162F"/>
<path d="M415.745 105.468C413.813 108.912 414.045 112.887 414.2 116.65C414.393 120.874 415.011 125.134 416.401 129.18C418.719 135.889 423.392 142.03 430.461 145.048C431.117 145.332 431.735 144.409 431.04 144.125C424.242 141.214 419.723 135.357 417.521 128.896C416.247 125.24 415.667 121.407 415.436 117.608C415.204 113.775 414.779 109.48 416.749 105.965C417.096 105.397 416.092 104.865 415.745 105.468Z" fill="#04162F"/>
<path d="M431.079 145.119C442.473 142.385 451.82 134.399 455.644 124.211C455.876 123.572 454.756 123.288 454.524 123.927C450.816 133.795 441.739 141.498 430.77 144.089C430.036 144.267 430.345 145.296 431.079 145.119Z" fill="#04162F"/>
<path d="M454.833 124.282C457.537 124.246 460.047 123.927 461.592 121.691C463.022 119.632 464.914 116.508 464.605 113.988C464.373 112.071 462.249 111.077 460.356 111.006C458.116 110.935 456.069 112.035 454.949 113.775C454.563 114.378 455.567 114.911 455.953 114.307C456.88 112.887 458.541 112 460.356 112.071C461.052 112.106 461.901 112.284 462.481 112.674C464.064 113.775 463.369 115.514 462.906 116.827C462.365 118.283 461.554 119.845 460.588 121.158C459.198 123.039 457.073 123.181 454.833 123.217C454.061 123.217 454.061 124.282 454.833 124.282Z" fill="#04162F"/>
<path d="M454.717 123.572C454.254 130.139 453.906 136.777 455.876 143.202C456.069 143.876 457.189 143.592 456.996 142.918C455.065 136.599 455.451 130.068 455.876 123.572C455.915 122.898 454.756 122.898 454.717 123.572Z" fill="#04162F"/>
<path d="M440.31 141.143C440.658 143.592 441.392 145.971 442.55 148.207C443.168 149.449 444.211 152.183 446.027 152.183C447.997 152.183 450.198 150.443 451.589 149.307C453.636 147.568 455.412 145.545 457.266 143.592C457.769 143.095 456.958 142.314 456.455 142.847C455.104 144.267 453.752 145.722 452.323 147.142C450.893 148.526 449.039 150.372 446.954 150.869C445.64 151.189 445.254 150.514 444.636 149.556C444.134 148.775 443.671 147.958 443.284 147.142C442.319 145.154 441.739 143.024 441.43 140.859C441.314 140.185 440.194 140.469 440.31 141.143Z" fill="#04162F"/>
<path d="M426.83 103.907C426.251 111.006 426.057 118.141 426.328 125.24C426.328 125.737 427.139 126.021 427.409 125.524C428.491 123.43 429.572 121.336 430.654 119.241C430.963 118.638 429.959 118.07 429.65 118.709C428.568 120.803 427.487 122.898 426.405 124.992C426.753 125.098 427.139 125.169 427.487 125.276C427.216 118.141 427.371 111.041 427.989 103.942C428.066 103.232 426.907 103.232 426.83 103.907Z" fill="#04162F"/>
<path d="M430.383 131.31C429.456 130.778 428.916 129.642 429.456 128.684C429.843 128.045 430.615 127.654 431.272 127.264C431.967 126.838 432.624 126.447 433.164 125.879C433.821 125.205 434.169 124.353 434.632 123.572C435.521 122.01 437.336 119.987 439.306 121.691C441.662 123.749 439.576 128.4 437.645 130.174C435.675 131.949 432.662 132.34 430.229 131.239C429.572 130.955 428.954 131.843 429.65 132.162C432.74 133.547 436.602 133.014 438.881 130.529C441.121 128.08 443.168 122.791 439.615 120.519C438.263 119.667 436.718 119.809 435.443 120.732C433.744 122.01 433.473 124.211 431.928 125.56C430.577 126.731 428.452 127.193 428.143 129.11C427.911 130.423 428.645 131.559 429.804 132.269C430.422 132.588 431.001 131.665 430.383 131.31Z" fill="#04162F"/>
<path d="M421.886 113.207C422.355 113.207 422.736 112.078 422.736 110.686C422.736 109.295 422.355 108.166 421.886 108.166C421.417 108.166 421.036 109.295 421.036 110.686C421.036 112.078 421.417 113.207 421.886 113.207Z" fill="#04162F"/>
<path d="M435.675 111.574C436.145 111.574 436.525 110.446 436.525 109.054C436.525 107.662 436.145 106.533 435.675 106.533C435.206 106.533 434.825 107.662 434.825 109.054C434.825 110.446 435.206 111.574 435.675 111.574Z" fill="#04162F"/>
</svg>
